%TF.GenerationSoftware,KiCad,Pcbnew,8.0.4*%
%TF.CreationDate,2024-08-27T12:01:37-05:00*%
%TF.ProjectId,ClonadorDeSe_alesEsp32,436c6f6e-6164-46f7-9244-655365f1616c,rev?*%
%TF.SameCoordinates,Original*%
%TF.FileFunction,Copper,L2,Bot*%
%TF.FilePolarity,Positive*%
%FSLAX46Y46*%
G04 Gerber Fmt 4.6, Leading zero omitted, Abs format (unit mm)*
G04 Created by KiCad (PCBNEW 8.0.4) date 2024-08-27 12:01:37*
%MOMM*%
%LPD*%
G01*
G04 APERTURE LIST*
G04 Aperture macros list*
%AMRoundRect*
0 Rectangle with rounded corners*
0 $1 Rounding radius*
0 $2 $3 $4 $5 $6 $7 $8 $9 X,Y pos of 4 corners*
0 Add a 4 corners polygon primitive as box body*
4,1,4,$2,$3,$4,$5,$6,$7,$8,$9,$2,$3,0*
0 Add four circle primitives for the rounded corners*
1,1,$1+$1,$2,$3*
1,1,$1+$1,$4,$5*
1,1,$1+$1,$6,$7*
1,1,$1+$1,$8,$9*
0 Add four rect primitives between the rounded corners*
20,1,$1+$1,$2,$3,$4,$5,0*
20,1,$1+$1,$4,$5,$6,$7,0*
20,1,$1+$1,$6,$7,$8,$9,0*
20,1,$1+$1,$8,$9,$2,$3,0*%
G04 Aperture macros list end*
%TA.AperFunction,ComponentPad*%
%ADD10R,1.700000X1.700000*%
%TD*%
%TA.AperFunction,ComponentPad*%
%ADD11O,1.700000X1.700000*%
%TD*%
%TA.AperFunction,ComponentPad*%
%ADD12C,1.524000*%
%TD*%
%TA.AperFunction,ComponentPad*%
%ADD13C,1.600000*%
%TD*%
%TA.AperFunction,ComponentPad*%
%ADD14O,1.600000X1.600000*%
%TD*%
%TA.AperFunction,ComponentPad*%
%ADD15R,3.500000X3.500000*%
%TD*%
%TA.AperFunction,ComponentPad*%
%ADD16RoundRect,0.750000X-0.750000X-1.000000X0.750000X-1.000000X0.750000X1.000000X-0.750000X1.000000X0*%
%TD*%
%TA.AperFunction,ComponentPad*%
%ADD17RoundRect,0.875000X-0.875000X-0.875000X0.875000X-0.875000X0.875000X0.875000X-0.875000X0.875000X0*%
%TD*%
%TA.AperFunction,ComponentPad*%
%ADD18R,1.800000X1.800000*%
%TD*%
%TA.AperFunction,ComponentPad*%
%ADD19C,1.800000*%
%TD*%
%TA.AperFunction,ComponentPad*%
%ADD20R,2.000000X2.000000*%
%TD*%
%TA.AperFunction,ComponentPad*%
%ADD21C,2.000000*%
%TD*%
%TA.AperFunction,SMDPad,CuDef*%
%ADD22R,7.340000X6.350000*%
%TD*%
%TA.AperFunction,SMDPad,CuDef*%
%ADD23O,1.600000X3.200000*%
%TD*%
%TA.AperFunction,ViaPad*%
%ADD24C,1.100000*%
%TD*%
%TA.AperFunction,Conductor*%
%ADD25C,1.000000*%
%TD*%
%TA.AperFunction,Conductor*%
%ADD26C,0.600000*%
%TD*%
G04 APERTURE END LIST*
D10*
%TO.P,Servo2,1,Pin_1*%
%TO.N,GND*%
X89460000Y-58500000D03*
D11*
%TO.P,Servo2,2,Pin_2*%
%TO.N,+5V*%
X92000000Y-58500000D03*
%TO.P,Servo2,3,Pin_3*%
%TO.N,/servo_2*%
X94540000Y-58500000D03*
%TD*%
D12*
%TO.P,MH-CD42,1,VIN*%
%TO.N,VDC*%
X76340000Y-112230000D03*
%TO.P,MH-CD42,2,GND*%
%TO.N,GND*%
X78880000Y-112230000D03*
%TO.P,MH-CD42,3,GND*%
X81420000Y-112230000D03*
%TO.P,MH-CD42,4,BAT*%
%TO.N,+BATT*%
X83960000Y-112230000D03*
%TO.P,MH-CD42,5,GND*%
%TO.N,GND*%
X86500000Y-112230000D03*
%TO.P,MH-CD42,6,OUT-5V*%
%TO.N,+5V*%
X89040000Y-112230000D03*
%TD*%
D10*
%TO.P,Servo1,1,Pin_1*%
%TO.N,GND*%
X89500000Y-47000000D03*
D11*
%TO.P,Servo1,2,Pin_2*%
%TO.N,+5V*%
X92040000Y-47000000D03*
%TO.P,Servo1,3,Pin_3*%
%TO.N,/servo_1*%
X94580000Y-47000000D03*
%TD*%
D13*
%TO.P,R1,1*%
%TO.N,/resistencia1*%
X147500000Y-108450000D03*
D14*
%TO.P,R1,2*%
%TO.N,Net-(D1-A)*%
X155120000Y-108450000D03*
%TD*%
D15*
%TO.P,EntradaJack,1*%
%TO.N,VDC*%
X89190000Y-79300000D03*
D16*
%TO.P,EntradaJack,2*%
%TO.N,GND*%
X83190000Y-79300000D03*
D17*
%TO.P,EntradaJack,3*%
X86190000Y-84000000D03*
%TD*%
D13*
%TO.P,R2,1*%
%TO.N,/resistencia2*%
X147500000Y-112500000D03*
D14*
%TO.P,R2,2*%
%TO.N,Net-(D2-A)*%
X155120000Y-112500000D03*
%TD*%
D18*
%TO.P,D1,1,K*%
%TO.N,GND*%
X161775000Y-106000000D03*
D19*
%TO.P,D1,2,A*%
%TO.N,Net-(D1-A)*%
X159235000Y-106000000D03*
%TD*%
D18*
%TO.P,D2,1,K*%
%TO.N,GND*%
X162000000Y-112500000D03*
D19*
%TO.P,D2,2,A*%
%TO.N,Net-(D2-A)*%
X159460000Y-112500000D03*
%TD*%
D10*
%TO.P,Zumbador,1,Pin_1*%
%TO.N,+5V*%
X81500000Y-60500000D03*
D11*
%TO.P,Zumbador,2,Pin_2*%
%TO.N,/zumbador*%
X81500000Y-63040000D03*
%TO.P,Zumbador,3,Pin_3*%
%TO.N,GND*%
X81500000Y-65580000D03*
%TD*%
D20*
%TO.P,ESP32-DevKit1,1,3V3*%
%TO.N,unconnected-(U1-3V3-Pad1)*%
X136200000Y-93515000D03*
D21*
%TO.P,ESP32-DevKit1,2,GND*%
%TO.N,GND*%
X136200000Y-90975000D03*
%TO.P,ESP32-DevKit1,3,D15*%
%TO.N,unconnected-(U1-D15-Pad3)*%
X136200000Y-88435000D03*
%TO.P,ESP32-DevKit1,4,D2*%
%TO.N,/resistencia2*%
X136200000Y-85895000D03*
%TO.P,ESP32-DevKit1,5,D4*%
%TO.N,/resistencia1*%
X136200000Y-83355000D03*
%TO.P,ESP32-DevKit1,6,RX2*%
%TO.N,Net-(U1-RX2)*%
X136200000Y-80815000D03*
%TO.P,ESP32-DevKit1,7,TX2*%
%TO.N,Net-(U1-TX2)*%
X136200000Y-78275000D03*
%TO.P,ESP32-DevKit1,8,D5*%
%TO.N,/set_1*%
X136200000Y-75735000D03*
%TO.P,ESP32-DevKit1,9,D18*%
%TO.N,unconnected-(U1-D18-Pad9)*%
X136200000Y-73195000D03*
%TO.P,ESP32-DevKit1,10,D19*%
%TO.N,unconnected-(U1-D19-Pad10)*%
X136200000Y-70655000D03*
%TO.P,ESP32-DevKit1,11,D21*%
%TO.N,unconnected-(U1-D21-Pad11)*%
X136200000Y-68115000D03*
%TO.P,ESP32-DevKit1,12,RX0*%
%TO.N,unconnected-(U1-RX0-Pad12)*%
X136200000Y-65575000D03*
%TO.P,ESP32-DevKit1,13,TX0*%
%TO.N,unconnected-(U1-TX0-Pad13)*%
X136200000Y-63035000D03*
%TO.P,ESP32-DevKit1,14,D22*%
%TO.N,unconnected-(U1-D22-Pad14)*%
X136200000Y-60495000D03*
%TO.P,ESP32-DevKit1,15,D23*%
%TO.N,unconnected-(U1-D23-Pad15)*%
X136200000Y-57955000D03*
%TO.P,ESP32-DevKit1,16,EN*%
%TO.N,unconnected-(U1-EN-Pad16)*%
X110800000Y-57955000D03*
%TO.P,ESP32-DevKit1,17,VP*%
%TO.N,unconnected-(U1-VP-Pad17)*%
X110800000Y-60495000D03*
%TO.P,ESP32-DevKit1,18,VN*%
%TO.N,unconnected-(U1-VN-Pad18)*%
X110800000Y-63035000D03*
%TO.P,ESP32-DevKit1,19,D34*%
%TO.N,unconnected-(U1-D34-Pad19)*%
X110800000Y-65575000D03*
%TO.P,ESP32-DevKit1,20,D35*%
%TO.N,unconnected-(U1-D35-Pad20)*%
X110800000Y-68115000D03*
%TO.P,ESP32-DevKit1,21,D32*%
%TO.N,unconnected-(U1-D32-Pad21)*%
X110800000Y-70655000D03*
%TO.P,ESP32-DevKit1,22,D33*%
%TO.N,unconnected-(U1-D33-Pad22)*%
X110800000Y-73195000D03*
%TO.P,ESP32-DevKit1,23,D25*%
%TO.N,unconnected-(U1-D25-Pad23)*%
X110800000Y-75735000D03*
%TO.P,ESP32-DevKit1,24,D26*%
%TO.N,unconnected-(U1-D26-Pad24)*%
X110800000Y-78275000D03*
%TO.P,ESP32-DevKit1,25,D27*%
%TO.N,unconnected-(U1-D27-Pad25)*%
X110800000Y-80815000D03*
%TO.P,ESP32-DevKit1,26,D14*%
%TO.N,/servo_1*%
X110800000Y-83355000D03*
%TO.P,ESP32-DevKit1,27,D12*%
%TO.N,/servo_2*%
X110800000Y-85895000D03*
%TO.P,ESP32-DevKit1,28,D13*%
%TO.N,/zumbador*%
X110800000Y-88435000D03*
%TO.P,ESP32-DevKit1,29,GND*%
%TO.N,GND*%
X110800000Y-90975000D03*
%TO.P,ESP32-DevKit1,30,VIN*%
%TO.N,+5V*%
X110800000Y-93515000D03*
%TD*%
D22*
%TO.P,Bateria 18650,1,+*%
%TO.N,+BATT*%
X89270000Y-126500000D03*
%TO.P,Bateria 18650,2,-*%
%TO.N,GND*%
X167930000Y-126500000D03*
%TD*%
D23*
%TO.P,HC-12,1,VCC*%
%TO.N,+5V*%
X166080000Y-89300000D03*
%TO.P,HC-12,2,GND*%
%TO.N,GND*%
X163540000Y-89300000D03*
%TO.P,HC-12,3,RXD*%
%TO.N,Net-(U1-RX2)*%
X161000000Y-89300000D03*
%TO.P,HC-12,4,TXD*%
%TO.N,Net-(U1-TX2)*%
X158460000Y-89300000D03*
%TO.P,HC-12,5,SET*%
%TO.N,/set_1*%
X155920000Y-89300000D03*
%TO.P,HC-12,6,GND@6*%
%TO.N,GND*%
X160160000Y-61700000D03*
%TO.P,HC-12,7,ANT*%
%TO.N,unconnected-(U3-ANT-Pad7)*%
X162700000Y-61700000D03*
%TO.P,HC-12,8,GND@8*%
%TO.N,GND*%
X165240000Y-61700000D03*
%TD*%
D24*
%TO.N,GND*%
X86500000Y-58500000D03*
X86500000Y-66500000D03*
%TO.N,/resistencia1*%
X143000000Y-99500000D03*
X145500000Y-108500000D03*
%TO.N,/resistencia2*%
X139500000Y-103000000D03*
X142000000Y-112500000D03*
%TD*%
D25*
%TO.N,+BATT*%
X81500000Y-126500000D02*
X81500000Y-116500000D01*
X83960000Y-114040000D02*
X83960000Y-112230000D01*
X81500000Y-126500000D02*
X89270000Y-126500000D01*
X81500000Y-116500000D02*
X83960000Y-114040000D01*
D26*
%TO.N,/servo_1*%
X105000000Y-53000000D02*
X105000000Y-77555000D01*
X94580000Y-47000000D02*
X99000000Y-47000000D01*
X105000000Y-77555000D02*
X110800000Y-83355000D01*
X99000000Y-47000000D02*
X105000000Y-53000000D01*
D25*
%TO.N,+5V*%
X103515000Y-95015000D02*
X106000000Y-97500000D01*
X93770000Y-112230000D02*
X89040000Y-112230000D01*
X97000000Y-88500000D02*
X103515000Y-95015000D01*
X105015000Y-93515000D02*
X110800000Y-93515000D01*
X163000000Y-99500000D02*
X166080000Y-96420000D01*
X166080000Y-96420000D02*
X166080000Y-89300000D01*
X106000000Y-109500000D02*
X138500000Y-109500000D01*
X106000000Y-97500000D02*
X106000000Y-109500000D01*
X81500000Y-60500000D02*
X81500000Y-54500000D01*
X76500000Y-60500000D02*
X76500000Y-70500000D01*
X97000000Y-72500000D02*
X97000000Y-88500000D01*
X77500000Y-71500000D02*
X96000000Y-71500000D01*
X81500000Y-60500000D02*
X76500000Y-60500000D01*
X144000000Y-104000000D02*
X149000000Y-104000000D01*
X149000000Y-104000000D02*
X153500000Y-99500000D01*
X81500000Y-54500000D02*
X91960000Y-54500000D01*
X76500000Y-70500000D02*
X77500000Y-71500000D01*
X153500000Y-99500000D02*
X163000000Y-99500000D01*
X91960000Y-58460000D02*
X92000000Y-58500000D01*
X92500000Y-47460000D02*
X92040000Y-47000000D01*
X92500000Y-53960000D02*
X92500000Y-47460000D01*
X96000000Y-71500000D02*
X97000000Y-72500000D01*
X138500000Y-109500000D02*
X144000000Y-104000000D01*
X91960000Y-54500000D02*
X91960000Y-58460000D01*
X103515000Y-95015000D02*
X105015000Y-93515000D01*
X91960000Y-54500000D02*
X92500000Y-53960000D01*
X93770000Y-112230000D02*
X102000000Y-104000000D01*
X102000000Y-96530000D02*
X103515000Y-95015000D01*
X102000000Y-104000000D02*
X102000000Y-96530000D01*
D26*
%TO.N,/servo_2*%
X94540000Y-58500000D02*
X100500000Y-58500000D01*
X102500000Y-60500000D02*
X102500000Y-77595000D01*
X102500000Y-77595000D02*
X110800000Y-85895000D01*
X100500000Y-58500000D02*
X102500000Y-60500000D01*
D25*
%TO.N,VDC*%
X76340000Y-112230000D02*
X76340000Y-107160000D01*
X76340000Y-107160000D02*
X92500000Y-91000000D01*
X92500000Y-80000000D02*
X91800000Y-79300000D01*
X92500000Y-91000000D02*
X92500000Y-80000000D01*
X91800000Y-79300000D02*
X89190000Y-79300000D01*
D26*
%TO.N,/zumbador*%
X81500000Y-63040000D02*
X82040000Y-62500000D01*
X82040000Y-62500000D02*
X97000000Y-62500000D01*
X97000000Y-62500000D02*
X101000000Y-66500000D01*
X101000000Y-66500000D02*
X101000000Y-78635000D01*
X101000000Y-78635000D02*
X110800000Y-88435000D01*
%TO.N,Net-(U1-RX2)*%
X145500000Y-81500000D02*
X144815000Y-80815000D01*
X161000000Y-89300000D02*
X161000000Y-95000000D01*
X144815000Y-80815000D02*
X136200000Y-80815000D01*
X146646000Y-95854000D02*
X145500000Y-94708000D01*
X145500000Y-94708000D02*
X145500000Y-81500000D01*
X160146000Y-95854000D02*
X146646000Y-95854000D01*
X161000000Y-95000000D02*
X160146000Y-95854000D01*
%TO.N,Net-(U1-TX2)*%
X158460000Y-93040000D02*
X157500000Y-94000000D01*
X157500000Y-94000000D02*
X148500000Y-94000000D01*
X148500000Y-94000000D02*
X147500000Y-93000000D01*
X158460000Y-89300000D02*
X158460000Y-93040000D01*
X147500000Y-93000000D02*
X147500000Y-79500000D01*
X136925000Y-79000000D02*
X136200000Y-78275000D01*
X147000000Y-79000000D02*
X136925000Y-79000000D01*
X147500000Y-79500000D02*
X147000000Y-79000000D01*
D25*
%TO.N,/set_1*%
X151500000Y-79000000D02*
X148235000Y-75735000D01*
X153500000Y-90500000D02*
X151500000Y-88500000D01*
X148235000Y-75735000D02*
X136200000Y-75735000D01*
X151500000Y-88500000D02*
X151500000Y-79000000D01*
X153500000Y-90500000D02*
X154720000Y-90500000D01*
X154720000Y-90500000D02*
X155920000Y-89300000D01*
D26*
%TO.N,Net-(D1-A)*%
X156785000Y-108450000D02*
X159235000Y-106000000D01*
X155120000Y-108450000D02*
X156785000Y-108450000D01*
%TO.N,Net-(D2-A)*%
X155120000Y-112500000D02*
X159460000Y-112500000D01*
%TO.N,/resistencia1*%
X147500000Y-108450000D02*
X145550000Y-108450000D01*
X145550000Y-108450000D02*
X145500000Y-108500000D01*
X136200000Y-83355000D02*
X142355000Y-83355000D01*
X142355000Y-83355000D02*
X143000000Y-84000000D01*
X143000000Y-84000000D02*
X143000000Y-99500000D01*
%TO.N,/resistencia2*%
X147500000Y-112500000D02*
X142000000Y-112500000D01*
X139395000Y-85895000D02*
X139500000Y-86000000D01*
X139500000Y-86000000D02*
X139500000Y-103000000D01*
X136200000Y-85895000D02*
X139395000Y-85895000D01*
%TD*%
%TA.AperFunction,Conductor*%
%TO.N,GND*%
G36*
X80152898Y-61520185D02*
G01*
X80198653Y-61572989D01*
X80202030Y-61581140D01*
X80206204Y-61592331D01*
X80206205Y-61592332D01*
X80206206Y-61592335D01*
X80292452Y-61707544D01*
X80292455Y-61707547D01*
X80407664Y-61793793D01*
X80407671Y-61793797D01*
X80539081Y-61842810D01*
X80595015Y-61884681D01*
X80619432Y-61950145D01*
X80604580Y-62018418D01*
X80583430Y-62046673D01*
X80461503Y-62168600D01*
X80325965Y-62362169D01*
X80325964Y-62362171D01*
X80226098Y-62576335D01*
X80226094Y-62576344D01*
X80164938Y-62804586D01*
X80164936Y-62804596D01*
X80144341Y-63039999D01*
X80144341Y-63040000D01*
X80164936Y-63275403D01*
X80164938Y-63275413D01*
X80226094Y-63503655D01*
X80226096Y-63503659D01*
X80226097Y-63503663D01*
X80319868Y-63704754D01*
X80325965Y-63717830D01*
X80325967Y-63717834D01*
X80361086Y-63767988D01*
X80461505Y-63911401D01*
X80628599Y-64078495D01*
X80812331Y-64207146D01*
X80814594Y-64208730D01*
X80858219Y-64263307D01*
X80865413Y-64332805D01*
X80833890Y-64395160D01*
X80814595Y-64411880D01*
X80628922Y-64541890D01*
X80628920Y-64541891D01*
X80461891Y-64708920D01*
X80461886Y-64708926D01*
X80326400Y-64902420D01*
X80326399Y-64902422D01*
X80226570Y-65116507D01*
X80226567Y-65116513D01*
X80169364Y-65329999D01*
X80169364Y-65330000D01*
X81066988Y-65330000D01*
X81034075Y-65387007D01*
X81000000Y-65514174D01*
X81000000Y-65645826D01*
X81034075Y-65772993D01*
X81066988Y-65830000D01*
X80169364Y-65830000D01*
X80226567Y-66043486D01*
X80226570Y-66043492D01*
X80326399Y-66257578D01*
X80461894Y-66451082D01*
X80628917Y-66618105D01*
X80822421Y-66753600D01*
X81036507Y-66853429D01*
X81036516Y-66853433D01*
X81250000Y-66910634D01*
X81250000Y-66013012D01*
X81307007Y-66045925D01*
X81434174Y-66080000D01*
X81565826Y-66080000D01*
X81692993Y-66045925D01*
X81750000Y-66013012D01*
X81750000Y-66910633D01*
X81963483Y-66853433D01*
X81963492Y-66853429D01*
X82177578Y-66753600D01*
X82371082Y-66618105D01*
X82538105Y-66451082D01*
X82673600Y-66257578D01*
X82773429Y-66043492D01*
X82773432Y-66043486D01*
X82830636Y-65830000D01*
X81933012Y-65830000D01*
X81965925Y-65772993D01*
X82000000Y-65645826D01*
X82000000Y-65514174D01*
X81965925Y-65387007D01*
X81933012Y-65330000D01*
X82830636Y-65330000D01*
X82830635Y-65329999D01*
X82773432Y-65116513D01*
X82773429Y-65116507D01*
X82673600Y-64902422D01*
X82673599Y-64902420D01*
X82538113Y-64708926D01*
X82538108Y-64708920D01*
X82371078Y-64541890D01*
X82185405Y-64411879D01*
X82141780Y-64357302D01*
X82134588Y-64287804D01*
X82166110Y-64225449D01*
X82185406Y-64208730D01*
X82371401Y-64078495D01*
X82538495Y-63911401D01*
X82674035Y-63717830D01*
X82773903Y-63503663D01*
X82803714Y-63392407D01*
X82840079Y-63332746D01*
X82902926Y-63302217D01*
X82923489Y-63300500D01*
X96617060Y-63300500D01*
X96684099Y-63320185D01*
X96704741Y-63336819D01*
X100163181Y-66795259D01*
X100196666Y-66856582D01*
X100199500Y-66882940D01*
X100199500Y-78713846D01*
X100230261Y-78868489D01*
X100230264Y-78868501D01*
X100290602Y-79014172D01*
X100290609Y-79014185D01*
X100378210Y-79145288D01*
X100378213Y-79145292D01*
X109286330Y-88053408D01*
X109319815Y-88114731D01*
X109318855Y-88171528D01*
X109314891Y-88187180D01*
X109294357Y-88434994D01*
X109294357Y-88435005D01*
X109314890Y-88682812D01*
X109314892Y-88682824D01*
X109375936Y-88923881D01*
X109475826Y-89151606D01*
X109611833Y-89359782D01*
X109611836Y-89359785D01*
X109780256Y-89542738D01*
X109780259Y-89542740D01*
X109780262Y-89542743D01*
X109883743Y-89623286D01*
X109924556Y-89679996D01*
X109931343Y-89728823D01*
X109929941Y-89751389D01*
X110662424Y-90483871D01*
X110603147Y-90499755D01*
X110486853Y-90566898D01*
X110391898Y-90661853D01*
X110324755Y-90778147D01*
X110308872Y-90837424D01*
X109576564Y-90105116D01*
X109476267Y-90258632D01*
X109376412Y-90486282D01*
X109315387Y-90727261D01*
X109315385Y-90727270D01*
X109294859Y-90974994D01*
X109294859Y-90975005D01*
X109315385Y-91222729D01*
X109315387Y-91222738D01*
X109376412Y-91463717D01*
X109476266Y-91691364D01*
X109576564Y-91844882D01*
X110308871Y-91112575D01*
X110324755Y-91171853D01*
X110391898Y-91288147D01*
X110486853Y-91383102D01*
X110603147Y-91450245D01*
X110662424Y-91466128D01*
X109929942Y-92198609D01*
X109931343Y-92221177D01*
X109915850Y-92289307D01*
X109883744Y-92326713D01*
X109780257Y-92407260D01*
X109780252Y-92407265D01*
X109718374Y-92474483D01*
X109658487Y-92510474D01*
X109627145Y-92514500D01*
X104916456Y-92514500D01*
X104723171Y-92552946D01*
X104723167Y-92552948D01*
X104723165Y-92552948D01*
X104723164Y-92552949D01*
X104647745Y-92584188D01*
X104647743Y-92584189D01*
X104541085Y-92628368D01*
X104541085Y-92628369D01*
X104541084Y-92628369D01*
X104377222Y-92737857D01*
X104377214Y-92737863D01*
X103602680Y-93512397D01*
X103541357Y-93545882D01*
X103471665Y-93540898D01*
X103427318Y-93512397D01*
X98036819Y-88121898D01*
X98003334Y-88060575D01*
X98000500Y-88034217D01*
X98000500Y-72604675D01*
X98000501Y-72604654D01*
X98000501Y-72401457D01*
X98000500Y-72401455D01*
X97997552Y-72386633D01*
X97962052Y-72208165D01*
X97886632Y-72026086D01*
X97886631Y-72026085D01*
X97886628Y-72026079D01*
X97777140Y-71862219D01*
X97777137Y-71862215D01*
X96784209Y-70869289D01*
X96784206Y-70869285D01*
X96784206Y-70869286D01*
X96777139Y-70862219D01*
X96777139Y-70862218D01*
X96637782Y-70722861D01*
X96637781Y-70722860D01*
X96637780Y-70722859D01*
X96473920Y-70613371D01*
X96473911Y-70613366D01*
X96401315Y-70583296D01*
X96345165Y-70560038D01*
X96291836Y-70537949D01*
X96291832Y-70537948D01*
X96291828Y-70537946D01*
X96195188Y-70518724D01*
X96098544Y-70499500D01*
X96098541Y-70499500D01*
X77965783Y-70499500D01*
X77898744Y-70479815D01*
X77878102Y-70463181D01*
X77536819Y-70121898D01*
X77503334Y-70060575D01*
X77500500Y-70034217D01*
X77500500Y-61624500D01*
X77520185Y-61557461D01*
X77572989Y-61511706D01*
X77624500Y-61500500D01*
X80085859Y-61500500D01*
X80152898Y-61520185D01*
G37*
%TD.AperFunction*%
%TA.AperFunction,Conductor*%
G36*
X90902539Y-55520185D02*
G01*
X90948294Y-55572989D01*
X90959500Y-55624500D01*
X90959500Y-57310730D01*
X90939815Y-57377769D01*
X90887011Y-57423524D01*
X90817853Y-57433468D01*
X90754297Y-57404443D01*
X90736234Y-57385042D01*
X90667187Y-57292809D01*
X90552093Y-57206649D01*
X90552086Y-57206645D01*
X90417379Y-57156403D01*
X90417372Y-57156401D01*
X90357844Y-57150000D01*
X89710000Y-57150000D01*
X89710000Y-58066988D01*
X89652993Y-58034075D01*
X89525826Y-58000000D01*
X89394174Y-58000000D01*
X89267007Y-58034075D01*
X89210000Y-58066988D01*
X89210000Y-57150000D01*
X88562155Y-57150000D01*
X88502627Y-57156401D01*
X88502620Y-57156403D01*
X88367913Y-57206645D01*
X88367906Y-57206649D01*
X88252812Y-57292809D01*
X88252809Y-57292812D01*
X88166649Y-57407906D01*
X88166645Y-57407913D01*
X88116403Y-57542620D01*
X88116401Y-57542627D01*
X88110000Y-57602155D01*
X88110000Y-58250000D01*
X89026988Y-58250000D01*
X88994075Y-58307007D01*
X88960000Y-58434174D01*
X88960000Y-58565826D01*
X88994075Y-58692993D01*
X89026988Y-58750000D01*
X88110000Y-58750000D01*
X88110000Y-59397844D01*
X88116401Y-59457372D01*
X88116403Y-59457379D01*
X88166645Y-59592086D01*
X88166649Y-59592093D01*
X88252809Y-59707187D01*
X88252812Y-59707190D01*
X88367906Y-59793350D01*
X88367913Y-59793354D01*
X88502620Y-59843596D01*
X88502627Y-59843598D01*
X88562155Y-59849999D01*
X88562172Y-59850000D01*
X89210000Y-59850000D01*
X89210000Y-58933012D01*
X89267007Y-58965925D01*
X89394174Y-59000000D01*
X89525826Y-59000000D01*
X89652993Y-58965925D01*
X89710000Y-58933012D01*
X89710000Y-59850000D01*
X90357828Y-59850000D01*
X90357844Y-59849999D01*
X90417372Y-59843598D01*
X90417379Y-59843596D01*
X90552086Y-59793354D01*
X90552093Y-59793350D01*
X90667187Y-59707190D01*
X90667190Y-59707187D01*
X90753350Y-59592093D01*
X90753354Y-59592086D01*
X90802422Y-59460529D01*
X90844293Y-59404595D01*
X90909757Y-59380178D01*
X90978030Y-59395030D01*
X91006285Y-59416181D01*
X91128599Y-59538495D01*
X91205135Y-59592086D01*
X91322165Y-59674032D01*
X91322167Y-59674033D01*
X91322170Y-59674035D01*
X91536337Y-59773903D01*
X91764592Y-59835063D01*
X91935319Y-59850000D01*
X91999999Y-59855659D01*
X92000000Y-59855659D01*
X92000001Y-59855659D01*
X92064681Y-59850000D01*
X92235408Y-59835063D01*
X92463663Y-59773903D01*
X92677830Y-59674035D01*
X92871401Y-59538495D01*
X93038495Y-59371401D01*
X93168425Y-59185842D01*
X93223002Y-59142217D01*
X93292500Y-59135023D01*
X93354855Y-59166546D01*
X93371575Y-59185842D01*
X93488883Y-59353376D01*
X93501505Y-59371401D01*
X93668599Y-59538495D01*
X93745135Y-59592086D01*
X93862165Y-59674032D01*
X93862167Y-59674033D01*
X93862170Y-59674035D01*
X94076337Y-59773903D01*
X94304592Y-59835063D01*
X94475319Y-59850000D01*
X94539999Y-59855659D01*
X94540000Y-59855659D01*
X94540001Y-59855659D01*
X94604681Y-59850000D01*
X94775408Y-59835063D01*
X95003663Y-59773903D01*
X95217830Y-59674035D01*
X95411401Y-59538495D01*
X95578495Y-59371401D01*
X95591116Y-59353375D01*
X95645693Y-59309752D01*
X95692691Y-59300500D01*
X100117060Y-59300500D01*
X100184099Y-59320185D01*
X100204741Y-59336819D01*
X101663181Y-60795259D01*
X101696666Y-60856582D01*
X101699500Y-60882940D01*
X101699500Y-65768059D01*
X101679815Y-65835098D01*
X101627011Y-65880853D01*
X101557853Y-65890797D01*
X101494297Y-65861772D01*
X101487819Y-65855740D01*
X97510292Y-61878213D01*
X97510288Y-61878210D01*
X97379185Y-61790609D01*
X97379172Y-61790602D01*
X97233501Y-61730264D01*
X97233489Y-61730261D01*
X97078845Y-61699500D01*
X97078842Y-61699500D01*
X82932418Y-61699500D01*
X82865379Y-61679815D01*
X82819624Y-61627011D01*
X82809680Y-61557853D01*
X82816236Y-61532167D01*
X82844091Y-61457482D01*
X82850500Y-61397873D01*
X82850499Y-59602128D01*
X82844091Y-59542517D01*
X82842590Y-59538493D01*
X82793797Y-59407671D01*
X82793793Y-59407664D01*
X82707547Y-59292455D01*
X82707544Y-59292452D01*
X82592335Y-59206206D01*
X82592332Y-59206205D01*
X82592331Y-59206204D01*
X82581161Y-59202038D01*
X82525231Y-59160166D01*
X82500816Y-59094701D01*
X82500500Y-59085858D01*
X82500500Y-55624500D01*
X82520185Y-55557461D01*
X82572989Y-55511706D01*
X82624500Y-55500500D01*
X90835500Y-55500500D01*
X90902539Y-55520185D01*
G37*
%TD.AperFunction*%
%TA.AperFunction,Conductor*%
G36*
X113443039Y-41020185D02*
G01*
X113488794Y-41072989D01*
X113500000Y-41124500D01*
X113500000Y-60000000D01*
X133500000Y-60000000D01*
X133500000Y-54410258D01*
X134029500Y-54410258D01*
X134029500Y-54639741D01*
X134054446Y-54829215D01*
X134059452Y-54867238D01*
X134118842Y-55088887D01*
X134206650Y-55300876D01*
X134206657Y-55300890D01*
X134321392Y-55499617D01*
X134461081Y-55681661D01*
X134461089Y-55681670D01*
X134623330Y-55843911D01*
X134623338Y-55843918D01*
X134805382Y-55983607D01*
X134805385Y-55983608D01*
X134805388Y-55983611D01*
X135004112Y-56098344D01*
X135004117Y-56098346D01*
X135004123Y-56098349D01*
X135095480Y-56136190D01*
X135216113Y-56186158D01*
X135437762Y-56245548D01*
X135665266Y-56275500D01*
X135665273Y-56275500D01*
X135727925Y-56275500D01*
X135794964Y-56295185D01*
X135840719Y-56347989D01*
X135850663Y-56417147D01*
X135821638Y-56480703D01*
X135768188Y-56516781D01*
X135595197Y-56576169D01*
X135595188Y-56576172D01*
X135376493Y-56694524D01*
X135180257Y-56847261D01*
X135011833Y-57030217D01*
X134875826Y-57238393D01*
X134775936Y-57466118D01*
X134714892Y-57707175D01*
X134714890Y-57707187D01*
X134694357Y-57954994D01*
X134694357Y-57955005D01*
X134714890Y-58202812D01*
X134714892Y-58202824D01*
X134775936Y-58443881D01*
X134875826Y-58671606D01*
X135011833Y-58879782D01*
X135011836Y-58879785D01*
X135180256Y-59062738D01*
X135263008Y-59127147D01*
X135303821Y-59183857D01*
X135307496Y-59253630D01*
X135272864Y-59314313D01*
X135263014Y-59322848D01*
X135223793Y-59353376D01*
X135180257Y-59387261D01*
X135011833Y-59570217D01*
X134875826Y-59778393D01*
X134775936Y-60006118D01*
X134714892Y-60247175D01*
X134714890Y-60247187D01*
X134694357Y-60494994D01*
X134694357Y-60495005D01*
X134714890Y-60742812D01*
X134714892Y-60742824D01*
X134775936Y-60983881D01*
X134875826Y-61211606D01*
X135011833Y-61419782D01*
X135011836Y-61419785D01*
X135180256Y-61602738D01*
X135263008Y-61667147D01*
X135303821Y-61723857D01*
X135307496Y-61793630D01*
X135272864Y-61854313D01*
X135263014Y-61862848D01*
X135234964Y-61884681D01*
X135180257Y-61927261D01*
X135011833Y-62110217D01*
X134875826Y-62318393D01*
X134775936Y-62546118D01*
X134714892Y-62787175D01*
X134714890Y-62787187D01*
X134694357Y-63034994D01*
X134694357Y-63035005D01*
X134714890Y-63282812D01*
X134714892Y-63282824D01*
X134775936Y-63523881D01*
X134875826Y-63751606D01*
X135011833Y-63959782D01*
X135011836Y-63959785D01*
X135180256Y-64142738D01*
X135263008Y-64207147D01*
X135303821Y-64263857D01*
X135307496Y-64333630D01*
X135272864Y-64394313D01*
X135263014Y-64402848D01*
X135251411Y-64411880D01*
X135180257Y-64467261D01*
X135011833Y-64650217D01*
X134875826Y-64858393D01*
X134775936Y-65086118D01*
X134714892Y-65327175D01*
X134714890Y-65327187D01*
X134694357Y-65574994D01*
X134694357Y-65575005D01*
X134714890Y-65822812D01*
X134714892Y-65822824D01*
X134775936Y-66063881D01*
X134875826Y-66291606D01*
X135011833Y-66499782D01*
X135011836Y-66499785D01*
X135180256Y-66682738D01*
X135263008Y-66747147D01*
X135303821Y-66803857D01*
X135307496Y-66873630D01*
X135272864Y-66934313D01*
X135263014Y-66942848D01*
X135204400Y-66988469D01*
X135180257Y-67007261D01*
X135011833Y-67190217D01*
X134875826Y-67398393D01*
X134775936Y-67626118D01*
X134714892Y-67867175D01*
X134714890Y-67867187D01*
X134694357Y-68114994D01*
X134694357Y-68115005D01*
X134714890Y-68362812D01*
X134714892Y-68362824D01*
X134775936Y-68603881D01*
X134875826Y-68831606D01*
X135011833Y-69039782D01*
X135011836Y-69039785D01*
X135180256Y-69222738D01*
X135263008Y-69287147D01*
X135303821Y-69343857D01*
X135307496Y-69413630D01*
X135272864Y-69474313D01*
X135263014Y-69482848D01*
X135204400Y-69528469D01*
X135180257Y-69547261D01*
X135011833Y-69730217D01*
X134875826Y-69938393D01*
X134775936Y-70166118D01*
X134714892Y-70407175D01*
X134714890Y-70407187D01*
X134694357Y-70654994D01*
X134694357Y-70655005D01*
X134714890Y-70902812D01*
X134714892Y-70902824D01*
X134775936Y-71143881D01*
X134875826Y-71371606D01*
X135011833Y-71579782D01*
X135011836Y-71579785D01*
X135180256Y-71762738D01*
X135263008Y-71827147D01*
X135303821Y-71883857D01*
X135307496Y-71953630D01*
X135272864Y-72014313D01*
X135263014Y-72022848D01*
X135204400Y-72068469D01*
X135180257Y-72087261D01*
X135011833Y-72270217D01*
X134875826Y-72478393D01*
X134775936Y-72706118D01*
X134714892Y-72947175D01*
X134714890Y-72947187D01*
X134694357Y-73194994D01*
X134694357Y-73195005D01*
X134714890Y-73442812D01*
X134714892Y-73442824D01*
X134775936Y-73683881D01*
X134875826Y-73911606D01*
X135011833Y-74119782D01*
X135011836Y-74119785D01*
X135180256Y-74302738D01*
X135263008Y-74367147D01*
X135303821Y-74423857D01*
X135307496Y-74493630D01*
X135272864Y-74554313D01*
X135263014Y-74562848D01*
X135204400Y-74608469D01*
X135180257Y-74627261D01*
X135011833Y-74810217D01*
X134875826Y-75018393D01*
X134775936Y-75246118D01*
X134714892Y-75487175D01*
X134714890Y-75487187D01*
X134694357Y-75734994D01*
X134694357Y-75735005D01*
X134714890Y-75982812D01*
X134714892Y-75982824D01*
X134775936Y-76223881D01*
X134875826Y-76451606D01*
X135011833Y-76659782D01*
X135011836Y-76659785D01*
X135180256Y-76842738D01*
X135263008Y-76907147D01*
X135303821Y-76963857D01*
X135307496Y-77033630D01*
X135272864Y-77094313D01*
X135263014Y-77102848D01*
X135258701Y-77106206D01*
X135180257Y-77167261D01*
X135011833Y-77350217D01*
X134875826Y-77558393D01*
X134775936Y-77786118D01*
X134714892Y-78027175D01*
X134714890Y-78027187D01*
X134694357Y-78274994D01*
X134694357Y-78275005D01*
X134714890Y-78522812D01*
X134714892Y-78522824D01*
X134775936Y-78763881D01*
X134875826Y-78991606D01*
X135011833Y-79199782D01*
X135011836Y-79199785D01*
X135180256Y-79382738D01*
X135263008Y-79447147D01*
X135303821Y-79503857D01*
X135307496Y-79573630D01*
X135272864Y-79634313D01*
X135263014Y-79642848D01*
X135204400Y-79688469D01*
X135180257Y-79707261D01*
X135011836Y-79890215D01*
X134875826Y-80098393D01*
X134775936Y-80326118D01*
X134714892Y-80567175D01*
X134714890Y-80567187D01*
X134694357Y-80814994D01*
X134694357Y-80815005D01*
X134714890Y-81062812D01*
X134714892Y-81062824D01*
X134775936Y-81303881D01*
X134875826Y-81531606D01*
X135011833Y-81739782D01*
X135034293Y-81764180D01*
X135180256Y-81922738D01*
X135263008Y-81987147D01*
X135303821Y-82043857D01*
X135307496Y-82113630D01*
X135272864Y-82174313D01*
X135263014Y-82182848D01*
X135204400Y-82228469D01*
X135180257Y-82247261D01*
X135011833Y-82430217D01*
X134875826Y-82638393D01*
X134775936Y-82866118D01*
X134714892Y-83107175D01*
X134714890Y-83107187D01*
X134694357Y-83354994D01*
X134694357Y-83355005D01*
X134714890Y-83602812D01*
X134714892Y-83602824D01*
X134775936Y-83843881D01*
X134875826Y-84071606D01*
X135011833Y-84279782D01*
X135011836Y-84279785D01*
X135180256Y-84462738D01*
X135263008Y-84527147D01*
X135303821Y-84583857D01*
X135307496Y-84653630D01*
X135272864Y-84714313D01*
X135263014Y-84722848D01*
X135204400Y-84768469D01*
X135180257Y-84787261D01*
X135011833Y-84970217D01*
X134875826Y-85178393D01*
X134775936Y-85406118D01*
X134714892Y-85647175D01*
X134714890Y-85647187D01*
X134694357Y-85894994D01*
X134694357Y-85895005D01*
X134714890Y-86142812D01*
X134714892Y-86142824D01*
X134775936Y-86383881D01*
X134875826Y-86611606D01*
X135011833Y-86819782D01*
X135011836Y-86819785D01*
X135180256Y-87002738D01*
X135263008Y-87067147D01*
X135303821Y-87123857D01*
X135307496Y-87193630D01*
X135272864Y-87254313D01*
X135263014Y-87262848D01*
X135221989Y-87294780D01*
X135180257Y-87327261D01*
X135011833Y-87510217D01*
X134875826Y-87718393D01*
X134775936Y-87946118D01*
X134714892Y-88187175D01*
X134714890Y-88187187D01*
X134694357Y-88434994D01*
X134694357Y-88435005D01*
X134714890Y-88682812D01*
X134714892Y-88682824D01*
X134775936Y-88923881D01*
X134875826Y-89151606D01*
X135011833Y-89359782D01*
X135011836Y-89359785D01*
X135180256Y-89542738D01*
X135180259Y-89542740D01*
X135180262Y-89542743D01*
X135283743Y-89623286D01*
X135324556Y-89679996D01*
X135331343Y-89728823D01*
X135329941Y-89751389D01*
X136062424Y-90483871D01*
X136003147Y-90499755D01*
X135886853Y-90566898D01*
X135791898Y-90661853D01*
X135724755Y-90778147D01*
X135708871Y-90837424D01*
X134976564Y-90105116D01*
X134876267Y-90258632D01*
X134776412Y-90486282D01*
X134715387Y-90727261D01*
X134715385Y-90727270D01*
X134694859Y-90974994D01*
X134694859Y-90975005D01*
X134715385Y-91222729D01*
X134715387Y-91222738D01*
X134776412Y-91463717D01*
X134876267Y-91691367D01*
X135007182Y-91891748D01*
X135027369Y-91958637D01*
X135008189Y-92025823D01*
X134962806Y-92068398D01*
X134957667Y-92071204D01*
X134842455Y-92157452D01*
X134842452Y-92157455D01*
X134756206Y-92272664D01*
X134756202Y-92272671D01*
X134705908Y-92407517D01*
X134699501Y-92467116D01*
X134699501Y-92467123D01*
X134699500Y-92467135D01*
X134699500Y-94562870D01*
X134699501Y-94562876D01*
X134705908Y-94622483D01*
X134756202Y-94757328D01*
X134756206Y-94757335D01*
X134842452Y-94872544D01*
X134842455Y-94872547D01*
X134957664Y-94958793D01*
X134957671Y-94958797D01*
X135092517Y-95009091D01*
X135092516Y-95009091D01*
X135099444Y-95009835D01*
X135152127Y-95015500D01*
X137247872Y-95015499D01*
X137307483Y-95009091D01*
X137442331Y-94958796D01*
X137557546Y-94872546D01*
X137643796Y-94757331D01*
X137694091Y-94622483D01*
X137700500Y-94562873D01*
X137700499Y-92467128D01*
X137694091Y-92407517D01*
X137693995Y-92407260D01*
X137643797Y-92272671D01*
X137643793Y-92272664D01*
X137557547Y-92157455D01*
X137557544Y-92157452D01*
X137442333Y-92071204D01*
X137437197Y-92068400D01*
X137387793Y-92018994D01*
X137372942Y-91950721D01*
X137392817Y-91891747D01*
X137523733Y-91691364D01*
X137623587Y-91463717D01*
X137684612Y-91222738D01*
X137684614Y-91222729D01*
X137705141Y-90975005D01*
X137705141Y-90974994D01*
X137684614Y-90727270D01*
X137684612Y-90727261D01*
X137623587Y-90486282D01*
X137523731Y-90258630D01*
X137423434Y-90105116D01*
X136691127Y-90837423D01*
X136675245Y-90778147D01*
X136608102Y-90661853D01*
X136513147Y-90566898D01*
X136396853Y-90499755D01*
X136337575Y-90483872D01*
X137070056Y-89751390D01*
X137068655Y-89728825D01*
X137084147Y-89660694D01*
X137116250Y-89623290D01*
X137219744Y-89542738D01*
X137388164Y-89359785D01*
X137524173Y-89151607D01*
X137624063Y-88923881D01*
X137685108Y-88682821D01*
X137705643Y-88435000D01*
X137686591Y-88205081D01*
X137685109Y-88187187D01*
X137685107Y-88187175D01*
X137624063Y-87946118D01*
X137524173Y-87718393D01*
X137388166Y-87510217D01*
X137366557Y-87486744D01*
X137219744Y-87327262D01*
X137136991Y-87262852D01*
X137096179Y-87206143D01*
X137092504Y-87136370D01*
X137127136Y-87075687D01*
X137136985Y-87067151D01*
X137219744Y-87002738D01*
X137388164Y-86819785D01*
X137432660Y-86751679D01*
X137485806Y-86706322D01*
X137536469Y-86695500D01*
X138575500Y-86695500D01*
X138642539Y-86715185D01*
X138688294Y-86767989D01*
X138699500Y-86819500D01*
X138699500Y-102275131D01*
X138679815Y-102342170D01*
X138671354Y-102353795D01*
X138622317Y-102413547D01*
X138524769Y-102596043D01*
X138464699Y-102794067D01*
X138444417Y-103000000D01*
X138464699Y-103205932D01*
X138464700Y-103205934D01*
X138524768Y-103403954D01*
X138622315Y-103586450D01*
X138622317Y-103586452D01*
X138753589Y-103746410D01*
X138850209Y-103825702D01*
X138913550Y-103877685D01*
X139096046Y-103975232D01*
X139294066Y-104035300D01*
X139294065Y-104035300D01*
X139312529Y-104037118D01*
X139500000Y-104055583D01*
X139705934Y-104035300D01*
X139903954Y-103975232D01*
X140086450Y-103877685D01*
X140246410Y-103746410D01*
X140377685Y-103586450D01*
X140475232Y-103403954D01*
X140535300Y-103205934D01*
X140555583Y-103000000D01*
X140535300Y-102794066D01*
X140475232Y-102596046D01*
X140377685Y-102413550D01*
X140328646Y-102353795D01*
X140301334Y-102289485D01*
X140300500Y-102275131D01*
X140300500Y-85921155D01*
X140300499Y-85921153D01*
X140269738Y-85766510D01*
X140269737Y-85766503D01*
X140230527Y-85671841D01*
X140209397Y-85620827D01*
X140209390Y-85620814D01*
X140121790Y-85489712D01*
X140102053Y-85469975D01*
X140010289Y-85378211D01*
X139905289Y-85273211D01*
X139905288Y-85273210D01*
X139905287Y-85273209D01*
X139774185Y-85185609D01*
X139774172Y-85185602D01*
X139628501Y-85125264D01*
X139628489Y-85125261D01*
X139473845Y-85094500D01*
X139473842Y-85094500D01*
X137536469Y-85094500D01*
X137469430Y-85074815D01*
X137432660Y-85038321D01*
X137388166Y-84970217D01*
X137366557Y-84946744D01*
X137219744Y-84787262D01*
X137136991Y-84722852D01*
X137096179Y-84666143D01*
X137092504Y-84596370D01*
X137127136Y-84535687D01*
X137136985Y-84527151D01*
X137219744Y-84462738D01*
X137388164Y-84279785D01*
X137388166Y-84279782D01*
X137432660Y-84211679D01*
X137485806Y-84166322D01*
X137536469Y-84155500D01*
X141972060Y-84155500D01*
X142039099Y-84175185D01*
X142059741Y-84191819D01*
X142163181Y-84295259D01*
X142196666Y-84356582D01*
X142199500Y-84382940D01*
X142199500Y-98775131D01*
X142179815Y-98842170D01*
X142171354Y-98853795D01*
X142122317Y-98913547D01*
X142024769Y-99096043D01*
X141964699Y-99294067D01*
X141944417Y-99500000D01*
X141964699Y-99705932D01*
X141979418Y-99754453D01*
X142024768Y-99903954D01*
X142122315Y-100086450D01*
X142122317Y-100086452D01*
X142253589Y-100246410D01*
X142341225Y-100318330D01*
X142413550Y-100377685D01*
X142596046Y-100475232D01*
X142794066Y-100535300D01*
X142794065Y-100535300D01*
X142809488Y-100536819D01*
X143000000Y-100555583D01*
X143205934Y-100535300D01*
X143403954Y-100475232D01*
X143586450Y-100377685D01*
X143746410Y-100246410D01*
X143877685Y-100086450D01*
X143975232Y-99903954D01*
X144035300Y-99705934D01*
X144055583Y-99500000D01*
X144035300Y-99294066D01*
X143975232Y-99096046D01*
X143877685Y-98913550D01*
X143828646Y-98853795D01*
X143801334Y-98789485D01*
X143800500Y-98775131D01*
X143800500Y-83921157D01*
X143800499Y-83921156D01*
X143783094Y-83833651D01*
X143783094Y-83833648D01*
X143769739Y-83766510D01*
X143769738Y-83766503D01*
X143709394Y-83620821D01*
X143709392Y-83620818D01*
X143709390Y-83620814D01*
X143621789Y-83489711D01*
X143621786Y-83489707D01*
X142865292Y-82733213D01*
X142865288Y-82733210D01*
X142734185Y-82645609D01*
X142734172Y-82645602D01*
X142588501Y-82585264D01*
X142588489Y-82585261D01*
X142433845Y-82554500D01*
X142433842Y-82554500D01*
X137536469Y-82554500D01*
X137469430Y-82534815D01*
X137432660Y-82498321D01*
X137388166Y-82430217D01*
X137366557Y-82406744D01*
X137219744Y-82247262D01*
X137136991Y-82182852D01*
X137096179Y-82126143D01*
X137092504Y-82056370D01*
X137127136Y-81995687D01*
X137136985Y-81987151D01*
X137219744Y-81922738D01*
X137388164Y-81739785D01*
X137411775Y-81703646D01*
X137432660Y-81671679D01*
X137485806Y-81626322D01*
X137536469Y-81615500D01*
X144432060Y-81615500D01*
X144499099Y-81635185D01*
X144519736Y-81651814D01*
X144663182Y-81795259D01*
X144696666Y-81856580D01*
X144699500Y-81882939D01*
X144699500Y-94786846D01*
X144730261Y-94941489D01*
X144730264Y-94941501D01*
X144790602Y-95087172D01*
X144790609Y-95087185D01*
X144878210Y-95218288D01*
X144878213Y-95218292D01*
X146135707Y-96475786D01*
X146135711Y-96475789D01*
X146266814Y-96563390D01*
X146266818Y-96563392D01*
X146266821Y-96563394D01*
X146412503Y-96623738D01*
X146567153Y-96654499D01*
X146567157Y-96654500D01*
X146567158Y-96654500D01*
X160224844Y-96654500D01*
X160224845Y-96654499D01*
X160379497Y-96623737D01*
X160525179Y-96563394D01*
X160656289Y-96475789D01*
X161621788Y-95510290D01*
X161636071Y-95488914D01*
X161709394Y-95379179D01*
X161769737Y-95233497D01*
X161800500Y-95078842D01*
X161800500Y-91189033D01*
X161820185Y-91121994D01*
X161843962Y-91094748D01*
X161847212Y-91091971D01*
X161847219Y-91091966D01*
X161991966Y-90947219D01*
X161991968Y-90947215D01*
X161991971Y-90947213D01*
X162112284Y-90781614D01*
X162112283Y-90781614D01*
X162112287Y-90781610D01*
X162159795Y-90688369D01*
X162207770Y-90637574D01*
X162275591Y-90620779D01*
X162341725Y-90643316D01*
X162380765Y-90688370D01*
X162428140Y-90781349D01*
X162548417Y-90946894D01*
X162548417Y-90946895D01*
X162693104Y-91091582D01*
X162858650Y-91211859D01*
X163040968Y-91304754D01*
X163235578Y-91367988D01*
X163290000Y-91376607D01*
X163290000Y-87223390D01*
X163235586Y-87232009D01*
X163040970Y-87295244D01*
X162858650Y-87388140D01*
X162693105Y-87508417D01*
X162693104Y-87508417D01*
X162548417Y-87653104D01*
X162548417Y-87653105D01*
X162428140Y-87818650D01*
X162380765Y-87911629D01*
X162332790Y-87962425D01*
X162264969Y-87979220D01*
X162198834Y-87956682D01*
X162159795Y-87911629D01*
X162112419Y-87818650D01*
X162112287Y-87818390D01*
X162039636Y-87718393D01*
X161991971Y-87652786D01*
X161847213Y-87508028D01*
X161681613Y-87387715D01*
X161681612Y-87387714D01*
X161681610Y-87387713D01*
X161624653Y-87358691D01*
X161499223Y-87294781D01*
X161304534Y-87231522D01*
X161129995Y-87203878D01*
X161102352Y-87199500D01*
X160897648Y-87199500D01*
X160873329Y-87203351D01*
X160695465Y-87231522D01*
X160500776Y-87294781D01*
X160318386Y-87387715D01*
X160152786Y-87508028D01*
X160008028Y-87652786D01*
X159887715Y-87818386D01*
X159840485Y-87911080D01*
X159792510Y-87961876D01*
X159724689Y-87978671D01*
X159658554Y-87956134D01*
X159619515Y-87911080D01*
X159572419Y-87818650D01*
X159572287Y-87818390D01*
X159499636Y-87718393D01*
X159451971Y-87652786D01*
X159307213Y-87508028D01*
X159141613Y-87387715D01*
X159141612Y-87387714D01*
X159141610Y-87387713D01*
X159084653Y-87358691D01*
X158959223Y-87294781D01*
X158764534Y-87231522D01*
X158589995Y-87203878D01*
X158562352Y-87199500D01*
X158357648Y-87199500D01*
X158333329Y-87203351D01*
X158155465Y-87231522D01*
X157960776Y-87294781D01*
X157778386Y-87387715D01*
X157612786Y-87508028D01*
X157468028Y-87652786D01*
X157347715Y-87818386D01*
X157300485Y-87911080D01*
X157252510Y-87961876D01*
X157184689Y-87978671D01*
X157118554Y-87956134D01*
X157079515Y-87911080D01*
X157032419Y-87818650D01*
X157032287Y-87818390D01*
X156959636Y-87718393D01*
X156911971Y-87652786D01*
X156767213Y-87508028D01*
X156601613Y-87387715D01*
X156601612Y-87387714D01*
X156601610Y-87387713D01*
X156544653Y-87358691D01*
X156419223Y-87294781D01*
X156224534Y-87231522D01*
X156049995Y-87203878D01*
X156022352Y-87199500D01*
X155817648Y-87199500D01*
X155793329Y-87203351D01*
X155615465Y-87231522D01*
X155420776Y-87294781D01*
X155238386Y-87387715D01*
X155072786Y-87508028D01*
X154928028Y-87652786D01*
X154807715Y-87818386D01*
X154714781Y-88000776D01*
X154651522Y-88195465D01*
X154619500Y-88397648D01*
X154619500Y-89134217D01*
X154599815Y-89201256D01*
X154583181Y-89221898D01*
X154341899Y-89463181D01*
X154280576Y-89496666D01*
X154254218Y-89499500D01*
X153965782Y-89499500D01*
X153898743Y-89479815D01*
X153878101Y-89463181D01*
X152536819Y-88121899D01*
X152503334Y-88060576D01*
X152500500Y-88034218D01*
X152500500Y-78901456D01*
X152462052Y-78708170D01*
X152462051Y-78708169D01*
X152462051Y-78708165D01*
X152443019Y-78662218D01*
X152386635Y-78526092D01*
X152386628Y-78526079D01*
X152277140Y-78362219D01*
X152214421Y-78299500D01*
X152137782Y-78222861D01*
X152137781Y-78222860D01*
X149019208Y-75104288D01*
X149019206Y-75104285D01*
X149019206Y-75104286D01*
X149012139Y-75097219D01*
X149012139Y-75097218D01*
X148872782Y-74957861D01*
X148872781Y-74957860D01*
X148872780Y-74957859D01*
X148708920Y-74848371D01*
X148708911Y-74848366D01*
X148616805Y-74810215D01*
X148580165Y-74795038D01*
X148526836Y-74772949D01*
X148526832Y-74772948D01*
X148526828Y-74772946D01*
X148430188Y-74753724D01*
X148333544Y-74734500D01*
X148333541Y-74734500D01*
X137372855Y-74734500D01*
X137305816Y-74714815D01*
X137281626Y-74694483D01*
X137219747Y-74627265D01*
X137219744Y-74627262D01*
X137219743Y-74627261D01*
X137136991Y-74562852D01*
X137096179Y-74506143D01*
X137092504Y-74436370D01*
X137127136Y-74375687D01*
X137136985Y-74367151D01*
X137219744Y-74302738D01*
X137388164Y-74119785D01*
X137524173Y-73911607D01*
X137624063Y-73683881D01*
X137685108Y-73442821D01*
X137705643Y-73195000D01*
X137686649Y-72965782D01*
X137685109Y-72947187D01*
X137685107Y-72947175D01*
X137624063Y-72706118D01*
X137524173Y-72478393D01*
X137388166Y-72270217D01*
X137331042Y-72208164D01*
X137219744Y-72087262D01*
X137136991Y-72022852D01*
X137096179Y-71966143D01*
X137092504Y-71896370D01*
X137127136Y-71835687D01*
X137136985Y-71827151D01*
X137219744Y-71762738D01*
X137388164Y-71579785D01*
X137524173Y-71371607D01*
X137624063Y-71143881D01*
X137685108Y-70902821D01*
X137687887Y-70869285D01*
X137705643Y-70655005D01*
X137705643Y-70654994D01*
X137685109Y-70407187D01*
X137685107Y-70407175D01*
X137624063Y-70166118D01*
X137524173Y-69938393D01*
X137388166Y-69730217D01*
X137366557Y-69706744D01*
X137219744Y-69547262D01*
X137136991Y-69482852D01*
X137096179Y-69426143D01*
X137092504Y-69356370D01*
X137127136Y-69295687D01*
X137136985Y-69287151D01*
X137219744Y-69222738D01*
X137388164Y-69039785D01*
X137524173Y-68831607D01*
X137624063Y-68603881D01*
X137685108Y-68362821D01*
X137705643Y-68115000D01*
X137685108Y-67867179D01*
X137624063Y-67626119D01*
X137524173Y-67398393D01*
X137388166Y-67190217D01*
X137366557Y-67166744D01*
X137219744Y-67007262D01*
X137136991Y-66942852D01*
X137096179Y-66886143D01*
X137092504Y-66816370D01*
X137127136Y-66755687D01*
X137136985Y-66747151D01*
X137219744Y-66682738D01*
X137388164Y-66499785D01*
X137524173Y-66291607D01*
X137624063Y-66063881D01*
X137685108Y-65822821D01*
X137689646Y-65768059D01*
X137705643Y-65575005D01*
X137705643Y-65574994D01*
X137685109Y-65327187D01*
X137685107Y-65327175D01*
X137624063Y-65086118D01*
X137524173Y-64858393D01*
X137388166Y-64650217D01*
X137366557Y-64626744D01*
X137219744Y-64467262D01*
X137136991Y-64402852D01*
X137096179Y-64346143D01*
X137092504Y-64276370D01*
X137127136Y-64215687D01*
X137136985Y-64207151D01*
X137219744Y-64142738D01*
X137388164Y-63959785D01*
X137524173Y-63751607D01*
X137624063Y-63523881D01*
X137685108Y-63282821D01*
X137685722Y-63275413D01*
X137705643Y-63035005D01*
X137705643Y-63034994D01*
X137685109Y-62787187D01*
X137685107Y-62787175D01*
X137638295Y-62602317D01*
X158860000Y-62602317D01*
X158892009Y-62804417D01*
X158955244Y-62999031D01*
X159048140Y-63181349D01*
X159168417Y-63346894D01*
X159168417Y-63346895D01*
X159313104Y-63491582D01*
X159478650Y-63611859D01*
X159660968Y-63704754D01*
X159855578Y-63767988D01*
X159910000Y-63776607D01*
X159910000Y-61950000D01*
X158860000Y-61950000D01*
X158860000Y-62602317D01*
X137638295Y-62602317D01*
X137624063Y-62546118D01*
X137524173Y-62318393D01*
X137388166Y-62110217D01*
X137366557Y-62086744D01*
X137219744Y-61927262D01*
X137136991Y-61862852D01*
X137096179Y-61806143D01*
X137092504Y-61736370D01*
X137127136Y-61675687D01*
X137136985Y-61667151D01*
X137219744Y-61602738D01*
X137388164Y-61419785D01*
X137524173Y-61211607D01*
X137624063Y-60983881D01*
X137685108Y-60742821D01*
X137697309Y-60595582D01*
X137705643Y-60495005D01*
X137705643Y-60494994D01*
X137685109Y-60247187D01*
X137685107Y-60247175D01*
X137624063Y-60006118D01*
X137524173Y-59778393D01*
X137388166Y-59570217D01*
X137331906Y-59509103D01*
X137219744Y-59387262D01*
X137136991Y-59322852D01*
X137096179Y-59266143D01*
X137092504Y-59196370D01*
X137127136Y-59135687D01*
X137136985Y-59127151D01*
X137219744Y-59062738D01*
X137388164Y-58879785D01*
X137524173Y-58671607D01*
X137624063Y-58443881D01*
X137685108Y-58202821D01*
X137685109Y-58202812D01*
X137705643Y-57955005D01*
X137705643Y-57954994D01*
X137685109Y-57707187D01*
X137685107Y-57707175D01*
X137624063Y-57466118D01*
X137524173Y-57238393D01*
X137388166Y-57030217D01*
X137366557Y-57006744D01*
X137219744Y-56847262D01*
X137023509Y-56694526D01*
X137023507Y-56694525D01*
X137023506Y-56694524D01*
X136804811Y-56576172D01*
X136804802Y-56576169D01*
X136569616Y-56495429D01*
X136324335Y-56454500D01*
X136284292Y-56454500D01*
X136217253Y-56434815D01*
X136171498Y-56382011D01*
X136161554Y-56312853D01*
X136190579Y-56249297D01*
X136249357Y-56211523D01*
X136252164Y-56210734D01*
X136343887Y-56186158D01*
X136555888Y-56098344D01*
X136754612Y-55983611D01*
X136936661Y-55843919D01*
X136936665Y-55843914D01*
X136936670Y-55843911D01*
X137098911Y-55681670D01*
X137098914Y-55681665D01*
X137098919Y-55681661D01*
X137238611Y-55499612D01*
X137353344Y-55300888D01*
X137441158Y-55088887D01*
X137500548Y-54867238D01*
X137530500Y-54639734D01*
X137530500Y-54410266D01*
X137500548Y-54182762D01*
X137441158Y-53961113D01*
X137353344Y-53749112D01*
X137238611Y-53550388D01*
X137238608Y-53550385D01*
X137238607Y-53550382D01*
X137098918Y-53368338D01*
X137098911Y-53368330D01*
X136936670Y-53206089D01*
X136936661Y-53206081D01*
X136754617Y-53066392D01*
X136555890Y-52951657D01*
X136555876Y-52951650D01*
X136343887Y-52863842D01*
X136122238Y-52804452D01*
X136084215Y-52799446D01*
X135894741Y-52774500D01*
X135894734Y-52774500D01*
X135665266Y-52774500D01*
X135665258Y-52774500D01*
X135448715Y-52803009D01*
X135437762Y-52804452D01*
X135344076Y-52829554D01*
X135216112Y-52863842D01*
X135004123Y-52951650D01*
X135004109Y-52951657D01*
X134805382Y-53066392D01*
X134623338Y-53206081D01*
X134461081Y-53368338D01*
X134321392Y-53550382D01*
X134206657Y-53749109D01*
X134206650Y-53749123D01*
X134118842Y-53961112D01*
X134059453Y-54182759D01*
X134059451Y-54182770D01*
X134029500Y-54410258D01*
X133500000Y-54410258D01*
X133500000Y-47378711D01*
X146649500Y-47378711D01*
X146649500Y-47621288D01*
X146679675Y-47850500D01*
X146681162Y-47861789D01*
X146707620Y-47960529D01*
X146743947Y-48096104D01*
X146836773Y-48320205D01*
X146836777Y-48320214D01*
X146853974Y-48350000D01*
X146958064Y-48530289D01*
X146958066Y-48530292D01*
X146958067Y-48530293D01*
X147105733Y-48722736D01*
X147105739Y-48722743D01*
X147277256Y-48894260D01*
X147277262Y-48894265D01*
X147469711Y-49041936D01*
X147679788Y-49163224D01*
X147903900Y-49256054D01*
X148138211Y-49318838D01*
X148318586Y-49342584D01*
X148378711Y-49350500D01*
X148378712Y-49350500D01*
X148621289Y-49350500D01*
X148669388Y-49344167D01*
X148861789Y-49318838D01*
X149096100Y-49256054D01*
X149320212Y-49163224D01*
X149530289Y-49041936D01*
X149722738Y-48894265D01*
X149894265Y-48722738D01*
X150041936Y-48530289D01*
X150163224Y-48320212D01*
X150256054Y-48096100D01*
X150318838Y-47861789D01*
X150350500Y-47621288D01*
X150350500Y-47378712D01*
X150318838Y-47138211D01*
X150256054Y-46903900D01*
X150163224Y-46679788D01*
X150041936Y-46469711D01*
X149922576Y-46314158D01*
X149894266Y-46277263D01*
X149894260Y-46277256D01*
X149722743Y-46105739D01*
X149722736Y-46105733D01*
X149530293Y-45958067D01*
X149530292Y-45958066D01*
X149530289Y-45958064D01*
X149320212Y-45836776D01*
X149294112Y-45825965D01*
X149096104Y-45743947D01*
X148861785Y-45681161D01*
X148621289Y-45649500D01*
X148621288Y-45649500D01*
X148378712Y-45649500D01*
X148378711Y-45649500D01*
X148138214Y-45681161D01*
X147903895Y-45743947D01*
X147679794Y-45836773D01*
X147679785Y-45836777D01*
X147469706Y-45958067D01*
X147277263Y-46105733D01*
X147277256Y-46105739D01*
X147105739Y-46277256D01*
X147105733Y-46277263D01*
X146958067Y-46469706D01*
X146836777Y-46679785D01*
X146836773Y-46679794D01*
X146743947Y-46903895D01*
X146681161Y-47138214D01*
X146649500Y-47378711D01*
X133500000Y-47378711D01*
X133500000Y-41124500D01*
X133519685Y-41057461D01*
X133572489Y-41011706D01*
X133624000Y-41000500D01*
X159289560Y-41000500D01*
X159356599Y-41020185D01*
X159402354Y-41072989D01*
X159412298Y-41142147D01*
X159383273Y-41205703D01*
X159339921Y-41237812D01*
X156500000Y-42500000D01*
X156500000Y-59500000D01*
X159527661Y-59500000D01*
X159594700Y-59519685D01*
X159640455Y-59572489D01*
X159650399Y-59641647D01*
X159621374Y-59705203D01*
X159583955Y-59734485D01*
X159478652Y-59788138D01*
X159313105Y-59908417D01*
X159313104Y-59908417D01*
X159168417Y-60053104D01*
X159168417Y-60053105D01*
X159048140Y-60218650D01*
X158955244Y-60400968D01*
X158892009Y-60595582D01*
X158860000Y-60797682D01*
X158860000Y-61450000D01*
X160286000Y-61450000D01*
X160353039Y-61469685D01*
X160398794Y-61522489D01*
X160410000Y-61574000D01*
X160410000Y-63776606D01*
X160464421Y-63767988D01*
X160659031Y-63704754D01*
X160841349Y-63611859D01*
X161006894Y-63491582D01*
X161006895Y-63491582D01*
X161151582Y-63346895D01*
X161151582Y-63346894D01*
X161274724Y-63177407D01*
X161276263Y-63178525D01*
X161322063Y-63137074D01*
X161390990Y-63125638D01*
X161455158Y-63153283D01*
X161494194Y-63211231D01*
X161500000Y-63248729D01*
X161500000Y-64000000D01*
X164000000Y-64000000D01*
X164000000Y-63386611D01*
X164019685Y-63319572D01*
X164072489Y-63273817D01*
X164141647Y-63263873D01*
X164205203Y-63292898D01*
X164224318Y-63313726D01*
X164248412Y-63346889D01*
X164248417Y-63346895D01*
X164393104Y-63491582D01*
X164558650Y-63611859D01*
X164740968Y-63704754D01*
X164935578Y-63767988D01*
X164990000Y-63776607D01*
X164990000Y-63776606D01*
X165490000Y-63776606D01*
X165544421Y-63767988D01*
X165739031Y-63704754D01*
X165921349Y-63611859D01*
X166086894Y-63491582D01*
X166086895Y-63491582D01*
X166231582Y-63346895D01*
X166231582Y-63346894D01*
X166351859Y-63181349D01*
X166444755Y-62999031D01*
X166507990Y-62804417D01*
X166540000Y-62602317D01*
X166540000Y-61950000D01*
X165490000Y-61950000D01*
X165490000Y-63776606D01*
X164990000Y-63776606D01*
X164990000Y-61574000D01*
X165009685Y-61506961D01*
X165062489Y-61461206D01*
X165114000Y-61450000D01*
X166540000Y-61450000D01*
X166540000Y-60797682D01*
X166507990Y-60595582D01*
X166444755Y-60400968D01*
X166351859Y-60218650D01*
X166231582Y-60053105D01*
X166231582Y-60053104D01*
X166086895Y-59908417D01*
X165921347Y-59788138D01*
X165816045Y-59734485D01*
X165765248Y-59686511D01*
X165748453Y-59618690D01*
X165770990Y-59552555D01*
X165825705Y-59509103D01*
X165872339Y-59500000D01*
X169500000Y-59500000D01*
X169500000Y-42499999D01*
X166349078Y-41239631D01*
X166294144Y-41196457D01*
X166271272Y-41130436D01*
X166287725Y-41062531D01*
X166338278Y-41014301D01*
X166395130Y-41000500D01*
X173375500Y-41000500D01*
X173442539Y-41020185D01*
X173488294Y-41072989D01*
X173499500Y-41124500D01*
X173499500Y-139875500D01*
X173479815Y-139942539D01*
X173427011Y-139988294D01*
X173375500Y-139999500D01*
X74624500Y-139999500D01*
X74557461Y-139979815D01*
X74511706Y-139927011D01*
X74500500Y-139875500D01*
X74500500Y-134878711D01*
X79149500Y-134878711D01*
X79149500Y-135121288D01*
X79181161Y-135361785D01*
X79243947Y-135596104D01*
X79336773Y-135820205D01*
X79336777Y-135820214D01*
X79347969Y-135839599D01*
X79458064Y-136030289D01*
X79458066Y-136030292D01*
X79458067Y-136030293D01*
X79605733Y-136222736D01*
X79605739Y-136222743D01*
X79777256Y-136394260D01*
X79777263Y-136394266D01*
X79883127Y-136475498D01*
X79969711Y-136541936D01*
X80179788Y-136663224D01*
X80403900Y-136756054D01*
X80638211Y-136818838D01*
X80818586Y-136842584D01*
X80878711Y-136850500D01*
X80878712Y-136850500D01*
X81121289Y-136850500D01*
X81169388Y-136844167D01*
X81361789Y-136818838D01*
X81596100Y-136756054D01*
X81820212Y-136663224D01*
X82030289Y-136541936D01*
X82222738Y-136394265D01*
X82394265Y-136222738D01*
X82541936Y-136030289D01*
X82663224Y-135820212D01*
X82756054Y-135596100D01*
X82818838Y-135361789D01*
X82850500Y-135121288D01*
X82850500Y-134878712D01*
X82818838Y-134638211D01*
X82756054Y-134403900D01*
X82748735Y-134386231D01*
X91224500Y-134386231D01*
X91224500Y-134613768D01*
X91260093Y-134838490D01*
X91330400Y-135054876D01*
X91330401Y-135054879D01*
X91433697Y-135257607D01*
X91567434Y-135441680D01*
X91728320Y-135602566D01*
X91912393Y-135736303D01*
X92011825Y-135786966D01*
X92115120Y-135839598D01*
X92115123Y-135839599D01*
X92223316Y-135874752D01*
X92331511Y-135909907D01*
X92435591Y-135926391D01*
X92556232Y-135945500D01*
X92556237Y-135945500D01*
X92783768Y-135945500D01*
X92892710Y-135928244D01*
X93008489Y-135909907D01*
X93224879Y-135839598D01*
X93427607Y-135736303D01*
X93611680Y-135602566D01*
X93772566Y-135441680D01*
X93906303Y-135257607D01*
X94009598Y-135054879D01*
X94079907Y-134838489D01*
X94098244Y-134722710D01*
X94115500Y-134613768D01*
X94115500Y-134386231D01*
X94113012Y-134370525D01*
X154224500Y-134370525D01*
X154224500Y-134629474D01*
X154224501Y-134629491D01*
X154258299Y-134886217D01*
X154258300Y-134886222D01*
X154258301Y-134886228D01*
X154258302Y-134886230D01*
X154325324Y-135136364D01*
X154424423Y-135375609D01*
X154424427Y-135375619D01*
X154553906Y-135599883D01*
X154711551Y-135805331D01*
X154711557Y-135805338D01*
X154894661Y-135988442D01*
X154894668Y-135988448D01*
X155100116Y-136146093D01*
X155324380Y-136275572D01*
X155324381Y-136275572D01*
X155324384Y-136275574D01*
X155563634Y-136374675D01*
X155813772Y-136441699D01*
X156070519Y-136475500D01*
X156070526Y-136475500D01*
X156329474Y-136475500D01*
X156329481Y-136475500D01*
X156586228Y-136441699D01*
X156836366Y-136374675D01*
X157075616Y-136275574D01*
X157299884Y-136146093D01*
X157505333Y-135988447D01*
X157688447Y-135805333D01*
X157846093Y-135599884D01*
X157975574Y-135375616D01*
X158074675Y-135136366D01*
X158141699Y-134886228D01*
X158175500Y-134629481D01*
X158175500Y-134370519D01*
X158141699Y-134113772D01*
X158074675Y-133863634D01*
X157975574Y-133624384D01*
X157964809Y-133605739D01*
X157846093Y-133400116D01*
X157688448Y-133194668D01*
X157688442Y-133194661D01*
X157505338Y-133011557D01*
X157505331Y-133011551D01*
X157299883Y-132853906D01*
X157075619Y-132724427D01*
X157075609Y-132724423D01*
X156836364Y-132625324D01*
X156711297Y-132591813D01*
X156586228Y-132558301D01*
X156586222Y-132558300D01*
X156586217Y-132558299D01*
X156329491Y-132524501D01*
X156329486Y-132524500D01*
X156329481Y-132524500D01*
X156070519Y-132524500D01*
X156070513Y-132524500D01*
X156070508Y-132524501D01*
X155813782Y-132558299D01*
X155813775Y-132558300D01*
X155813772Y-132558301D01*
X155760908Y-132572465D01*
X155563635Y-132625324D01*
X155324390Y-132724423D01*
X155324380Y-132724427D01*
X155100116Y-132853906D01*
X154894668Y-133011551D01*
X154894661Y-133011557D01*
X154711557Y-133194661D01*
X154711551Y-133194668D01*
X154553906Y-133400116D01*
X154424427Y-133624380D01*
X154424423Y-133624390D01*
X154325324Y-133863635D01*
X154258302Y-134113769D01*
X154258299Y-134113782D01*
X154224501Y-134370508D01*
X154224500Y-134370525D01*
X94113012Y-134370525D01*
X94094793Y-134255499D01*
X94079907Y-134161511D01*
X94009598Y-133945121D01*
X94009598Y-133945120D01*
X93924070Y-133777263D01*
X93906303Y-133742393D01*
X93772566Y-133558320D01*
X93611680Y-133397434D01*
X93427607Y-133263697D01*
X93224879Y-133160401D01*
X93224876Y-133160400D01*
X93008490Y-133090093D01*
X92783768Y-133054500D01*
X92783763Y-133054500D01*
X92556237Y-133054500D01*
X92556232Y-133054500D01*
X92331509Y-133090093D01*
X92115123Y-133160400D01*
X92115120Y-133160401D01*
X91912392Y-133263697D01*
X91811813Y-133336773D01*
X91728320Y-133397434D01*
X91728318Y-133397436D01*
X91728317Y-133397436D01*
X91567436Y-133558317D01*
X91567436Y-133558318D01*
X91567434Y-133558320D01*
X91532985Y-133605735D01*
X91433697Y-133742392D01*
X91330401Y-133945120D01*
X91330400Y-133945123D01*
X91260093Y-134161509D01*
X91224500Y-134386231D01*
X82748735Y-134386231D01*
X82663224Y-134179788D01*
X82541936Y-133969711D01*
X82394265Y-133777262D01*
X82394260Y-133777256D01*
X82222743Y-133605739D01*
X82222736Y-133605733D01*
X82030293Y-133458067D01*
X82030292Y-133458066D01*
X82030289Y-133458064D01*
X81820212Y-133336776D01*
X81820205Y-133336773D01*
X81596104Y-133243947D01*
X81478944Y-133212554D01*
X81361789Y-133181162D01*
X81361788Y-133181161D01*
X81361785Y-133181161D01*
X81121289Y-133149500D01*
X81121288Y-133149500D01*
X80878712Y-133149500D01*
X80878711Y-133149500D01*
X80638214Y-133181161D01*
X80403895Y-133243947D01*
X80179794Y-133336773D01*
X80179785Y-133336777D01*
X79969706Y-133458067D01*
X79777263Y-133605733D01*
X79777256Y-133605739D01*
X79605739Y-133777256D01*
X79605733Y-133777263D01*
X79458067Y-133969706D01*
X79336777Y-134179785D01*
X79336773Y-134179794D01*
X79243947Y-134403895D01*
X79181161Y-134638214D01*
X79149500Y-134878711D01*
X74500500Y-134878711D01*
X74500500Y-112229997D01*
X75072677Y-112229997D01*
X75072677Y-112230002D01*
X75091929Y-112450062D01*
X75091930Y-112450070D01*
X75149104Y-112663445D01*
X75149105Y-112663447D01*
X75149106Y-112663450D01*
X75239624Y-112857567D01*
X75242466Y-112863662D01*
X75242468Y-112863666D01*
X75369170Y-113044615D01*
X75369175Y-113044621D01*
X75525378Y-113200824D01*
X75525384Y-113200829D01*
X75706333Y-113327531D01*
X75706335Y-113327532D01*
X75706338Y-113327534D01*
X75906550Y-113420894D01*
X76119932Y-113478070D01*
X76277123Y-113491822D01*
X76339998Y-113497323D01*
X76340000Y-113497323D01*
X76340002Y-113497323D01*
X76395017Y-113492509D01*
X76560068Y-113478070D01*
X76773450Y-113420894D01*
X76973662Y-113327534D01*
X77154620Y-113200826D01*
X77310826Y-113044620D01*
X77437534Y-112863662D01*
X77497894Y-112734218D01*
X77544066Y-112681779D01*
X77611259Y-112662627D01*
X77678141Y-112682843D01*
X77722658Y-112734219D01*
X77782898Y-112863405D01*
X77782901Y-112863411D01*
X77828258Y-112928187D01*
X77828259Y-112928188D01*
X78499000Y-112257447D01*
X78499000Y-112280160D01*
X78524964Y-112377061D01*
X78575124Y-112463940D01*
X78646060Y-112534876D01*
X78732939Y-112585036D01*
X78829840Y-112611000D01*
X78852553Y-112611000D01*
X78181810Y-113281740D01*
X78246590Y-113327099D01*
X78246592Y-113327100D01*
X78446715Y-113420419D01*
X78446729Y-113420424D01*
X78660013Y-113477573D01*
X78660023Y-113477575D01*
X78879999Y-113496821D01*
X78880001Y-113496821D01*
X79099976Y-113477575D01*
X79099986Y-113477573D01*
X79313270Y-113420424D01*
X79313284Y-113420419D01*
X79513407Y-113327100D01*
X79513417Y-113327094D01*
X79578188Y-113281741D01*
X78907448Y-112611000D01*
X78930160Y-112611000D01*
X79027061Y-112585036D01*
X79113940Y-112534876D01*
X79184876Y-112463940D01*
X79235036Y-112377061D01*
X79261000Y-112280160D01*
X79261000Y-112257447D01*
X79931741Y-112928188D01*
X79977094Y-112863417D01*
X79977100Y-112863407D01*
X80037618Y-112733627D01*
X80083790Y-112681187D01*
X80150983Y-112662035D01*
X80217865Y-112682251D01*
X80262382Y-112733627D01*
X80322898Y-112863405D01*
X80322901Y-112863411D01*
X80368258Y-112928187D01*
X80368259Y-112928188D01*
X81039000Y-112257447D01*
X81039000Y-112280160D01*
X81064964Y-112377061D01*
X81115124Y-112463940D01*
X81186060Y-112534876D01*
X81272939Y-112585036D01*
X81369840Y-112611000D01*
X81392553Y-112611000D01*
X80721810Y-113281740D01*
X80786590Y-113327099D01*
X80786592Y-113327100D01*
X80986715Y-113420419D01*
X80986729Y-113420424D01*
X81200013Y-113477573D01*
X81200023Y-113477575D01*
X81419999Y-113496821D01*
X81420001Y-113496821D01*
X81639976Y-113477575D01*
X81639986Y-113477573D01*
X81853270Y-113420424D01*
X81853284Y-113420419D01*
X82053407Y-113327100D01*
X82053417Y-113327094D01*
X82118188Y-113281741D01*
X81447448Y-112611000D01*
X81470160Y-112611000D01*
X81567061Y-112585036D01*
X81653940Y-112534876D01*
X81724876Y-112463940D01*
X81775036Y-112377061D01*
X81801000Y-112280160D01*
X81801000Y-112257447D01*
X82471741Y-112928188D01*
X82517094Y-112863417D01*
X82517095Y-112863416D01*
X82577340Y-112734219D01*
X82623512Y-112681780D01*
X82690706Y-112662627D01*
X82757587Y-112682842D01*
X82802105Y-112734218D01*
X82862465Y-112863661D01*
X82862466Y-112863662D01*
X82937076Y-112970216D01*
X82959402Y-113036419D01*
X82959500Y-113041337D01*
X82959500Y-113574217D01*
X82939815Y-113641256D01*
X82923181Y-113661898D01*
X80862220Y-115722859D01*
X80862218Y-115722861D01*
X80792538Y-115792540D01*
X80722859Y-115862219D01*
X80613371Y-116026079D01*
X80613364Y-116026092D01*
X80537950Y-116208160D01*
X80537947Y-116208170D01*
X80499500Y-116401456D01*
X80499500Y-116401459D01*
X80499500Y-126401459D01*
X80499500Y-126598541D01*
X80499500Y-126598543D01*
X80499499Y-126598543D01*
X80537947Y-126791829D01*
X80537950Y-126791839D01*
X80613364Y-126973907D01*
X80613371Y-126973920D01*
X80722860Y-127137781D01*
X80722863Y-127137785D01*
X80862214Y-127277136D01*
X80862218Y-127277139D01*
X81026079Y-127386628D01*
X81026092Y-127386635D01*
X81208160Y-127462049D01*
X81208165Y-127462051D01*
X81208169Y-127462051D01*
X81208170Y-127462052D01*
X81401456Y-127500500D01*
X81401459Y-127500500D01*
X84975501Y-127500500D01*
X85042540Y-127520185D01*
X85088295Y-127572989D01*
X85099501Y-127624500D01*
X85099501Y-129722876D01*
X85105908Y-129782483D01*
X85156202Y-129917328D01*
X85156206Y-129917335D01*
X85242452Y-130032544D01*
X85242455Y-130032547D01*
X85357664Y-130118793D01*
X85357671Y-130118797D01*
X85492517Y-130169091D01*
X85492516Y-130169091D01*
X85499444Y-130169835D01*
X85552127Y-130175500D01*
X92987872Y-130175499D01*
X93047483Y-130169091D01*
X93182331Y-130118796D01*
X93297546Y-130032546D01*
X93383796Y-129917331D01*
X93434091Y-129782483D01*
X93440500Y-129722873D01*
X93440500Y-129722844D01*
X163760000Y-129722844D01*
X163766401Y-129782372D01*
X163766403Y-129782379D01*
X163816645Y-129917086D01*
X163816649Y-129917093D01*
X163902809Y-130032187D01*
X163902812Y-130032190D01*
X164017906Y-130118350D01*
X164017913Y-130118354D01*
X164152620Y-130168596D01*
X164152627Y-130168598D01*
X164212155Y-130174999D01*
X164212172Y-130175000D01*
X167680000Y-130175000D01*
X168180000Y-130175000D01*
X171647828Y-130175000D01*
X171647844Y-130174999D01*
X171707372Y-130168598D01*
X171707379Y-130168596D01*
X171842086Y-130118354D01*
X171842093Y-130118350D01*
X171957187Y-130032190D01*
X171957190Y-130032187D01*
X172043350Y-129917093D01*
X172043354Y-129917086D01*
X172093596Y-129782379D01*
X172093598Y-129782372D01*
X172099999Y-129722844D01*
X172100000Y-129722827D01*
X172100000Y-126750000D01*
X168180000Y-126750000D01*
X168180000Y-130175000D01*
X167680000Y-130175000D01*
X167680000Y-126750000D01*
X163760000Y-126750000D01*
X163760000Y-129722844D01*
X93440500Y-129722844D01*
X93440499Y-123277155D01*
X163760000Y-123277155D01*
X163760000Y-126250000D01*
X167680000Y-126250000D01*
X168180000Y-126250000D01*
X172100000Y-126250000D01*
X172100000Y-123277172D01*
X172099999Y-123277155D01*
X172093598Y-123217627D01*
X172093596Y-123217620D01*
X172043354Y-123082913D01*
X172043350Y-123082906D01*
X171957190Y-122967812D01*
X171957187Y-122967809D01*
X171842093Y-122881649D01*
X171842086Y-122881645D01*
X171707379Y-122831403D01*
X171707372Y-122831401D01*
X171647844Y-122825000D01*
X168180000Y-122825000D01*
X168180000Y-126250000D01*
X167680000Y-126250000D01*
X167680000Y-122825000D01*
X164212155Y-122825000D01*
X164152627Y-122831401D01*
X164152620Y-122831403D01*
X164017913Y-122881645D01*
X164017906Y-122881649D01*
X163902812Y-122967809D01*
X163902809Y-122967812D01*
X163816649Y-123082906D01*
X163816645Y-123082913D01*
X163766403Y-123217620D01*
X163766401Y-123217627D01*
X163760000Y-123277155D01*
X93440499Y-123277155D01*
X93440499Y-123277128D01*
X93434091Y-123217517D01*
X93383884Y-123082906D01*
X93383797Y-123082671D01*
X93383793Y-123082664D01*
X93297547Y-122967455D01*
X93297544Y-122967452D01*
X93182335Y-122881206D01*
X93182328Y-122881202D01*
X93047482Y-122830908D01*
X93047483Y-122830908D01*
X92987883Y-122824501D01*
X92987881Y-122824500D01*
X92987873Y-122824500D01*
X92987864Y-122824500D01*
X85552129Y-122824500D01*
X85552123Y-122824501D01*
X85492516Y-122830908D01*
X85357671Y-122881202D01*
X85357664Y-122881206D01*
X85242455Y-122967452D01*
X85242452Y-122967455D01*
X85156206Y-123082664D01*
X85156202Y-123082671D01*
X85105908Y-123217517D01*
X85099501Y-123277116D01*
X85099501Y-123277123D01*
X85099500Y-123277135D01*
X85099500Y-125375500D01*
X85079815Y-125442539D01*
X85027011Y-125488294D01*
X84975500Y-125499500D01*
X82624500Y-125499500D01*
X82557461Y-125479815D01*
X82511706Y-125427011D01*
X82500500Y-125375500D01*
X82500500Y-118370525D01*
X99024500Y-118370525D01*
X99024500Y-118629474D01*
X99024501Y-118629491D01*
X99058299Y-118886217D01*
X99058300Y-118886222D01*
X99058301Y-118886228D01*
X99058302Y-118886230D01*
X99125324Y-119136364D01*
X99224423Y-119375609D01*
X99224427Y-119375619D01*
X99353906Y-119599883D01*
X99511551Y-119805331D01*
X99511557Y-119805338D01*
X99694661Y-119988442D01*
X99694668Y-119988448D01*
X99900116Y-120146093D01*
X100124380Y-120275572D01*
X100124381Y-120275572D01*
X100124384Y-120275574D01*
X100363634Y-120374675D01*
X100613772Y-120441699D01*
X100870519Y-120475500D01*
X100870526Y-120475500D01*
X101129474Y-120475500D01*
X101129481Y-120475500D01*
X101386228Y-120441699D01*
X101636366Y-120374675D01*
X101875616Y-120275574D01*
X102099884Y-120146093D01*
X102305333Y-119988447D01*
X102488447Y-119805333D01*
X102646093Y-119599884D01*
X102775574Y-119375616D01*
X102874675Y-119136366D01*
X102941699Y-118886228D01*
X102975500Y-118629481D01*
X102975500Y-118370519D01*
X102941699Y-118113772D01*
X102874675Y-117863634D01*
X102775574Y-117624384D01*
X102646093Y-117400116D01*
X102488447Y-117194667D01*
X102488442Y-117194661D01*
X102305338Y-117011557D01*
X102305331Y-117011551D01*
X102099883Y-116853906D01*
X101875619Y-116724427D01*
X101875609Y-116724423D01*
X101636364Y-116625324D01*
X101511297Y-116591813D01*
X101386228Y-116558301D01*
X101386222Y-116558300D01*
X101386217Y-116558299D01*
X101129491Y-116524501D01*
X101129486Y-116524500D01*
X101129481Y-116524500D01*
X100870519Y-116524500D01*
X100870513Y-116524500D01*
X100870508Y-116524501D01*
X100613782Y-116558299D01*
X100613775Y-116558300D01*
X100613772Y-116558301D01*
X100560908Y-116572465D01*
X100363635Y-116625324D01*
X100124390Y-116724423D01*
X100124380Y-116724427D01*
X99900116Y-116853906D01*
X99694668Y-117011551D01*
X99694661Y-117011557D01*
X99511557Y-117194661D01*
X99511551Y-117194668D01*
X99353906Y-117400116D01*
X99224427Y-117624380D01*
X99224423Y-117624390D01*
X99125324Y-117863635D01*
X99058302Y-118113769D01*
X99058299Y-118113782D01*
X99024501Y-118370508D01*
X99024500Y-118370525D01*
X82500500Y-118370525D01*
X82500500Y-116965782D01*
X82520185Y-116898743D01*
X82536819Y-116878101D01*
X84737136Y-114677785D01*
X84737136Y-114677784D01*
X84737139Y-114677782D01*
X84774129Y-114622421D01*
X84846631Y-114513916D01*
X84846636Y-114513906D01*
X84922049Y-114331839D01*
X84922051Y-114331835D01*
X84960500Y-114138541D01*
X84960500Y-113041337D01*
X84980185Y-112974298D01*
X84982896Y-112970254D01*
X85057534Y-112863662D01*
X85117894Y-112734218D01*
X85164066Y-112681779D01*
X85231259Y-112662627D01*
X85298141Y-112682843D01*
X85342658Y-112734219D01*
X85402898Y-112863405D01*
X85402901Y-112863411D01*
X85448258Y-112928187D01*
X85448259Y-112928188D01*
X86119000Y-112257447D01*
X86119000Y-112280160D01*
X86144964Y-112377061D01*
X86195124Y-112463940D01*
X86266060Y-112534876D01*
X86352939Y-112585036D01*
X86449840Y-112611000D01*
X86472553Y-112611000D01*
X85801810Y-113281740D01*
X85866590Y-113327099D01*
X85866592Y-113327100D01*
X86066715Y-113420419D01*
X86066729Y-113420424D01*
X86280013Y-113477573D01*
X86280023Y-113477575D01*
X86499999Y-113496821D01*
X86500001Y-113496821D01*
X86719976Y-113477575D01*
X86719986Y-113477573D01*
X86933270Y-113420424D01*
X86933284Y-113420419D01*
X87133407Y-113327100D01*
X87133417Y-113327094D01*
X87198188Y-113281741D01*
X86527448Y-112611000D01*
X86550160Y-112611000D01*
X86647061Y-112585036D01*
X86733940Y-112534876D01*
X86804876Y-112463940D01*
X86855036Y-112377061D01*
X86881000Y-112280160D01*
X86881000Y-112257447D01*
X87551741Y-112928188D01*
X87597094Y-112863417D01*
X87597095Y-112863416D01*
X87657340Y-112734219D01*
X87703512Y-112681780D01*
X87770706Y-112662627D01*
X87837587Y-112682842D01*
X87882105Y-112734218D01*
X87942466Y-112863662D01*
X87942468Y-112863666D01*
X88069170Y-113044615D01*
X88069175Y-113044621D01*
X88225378Y-113200824D01*
X88225384Y-113200829D01*
X88406333Y-113327531D01*
X88406335Y-113327532D01*
X88406338Y-113327534D01*
X88606550Y-113420894D01*
X88819932Y-113478070D01*
X88977123Y-113491822D01*
X89039998Y-113497323D01*
X89040000Y-113497323D01*
X89040002Y-113497323D01*
X89095017Y-113492509D01*
X89260068Y-113478070D01*
X89473450Y-113420894D01*
X89673662Y-113327534D01*
X89780215Y-113252924D01*
X89846421Y-113230598D01*
X89851338Y-113230500D01*
X93868543Y-113230500D01*
X93972559Y-113209809D01*
X94024568Y-113199464D01*
X94061836Y-113192051D01*
X94156755Y-113152734D01*
X94243914Y-113116632D01*
X94407782Y-113007139D01*
X94547139Y-112867782D01*
X94547139Y-112867780D01*
X94557347Y-112857573D01*
X94557348Y-112857570D01*
X94914918Y-112500000D01*
X140944417Y-112500000D01*
X140964699Y-112705932D01*
X140973280Y-112734219D01*
X141024768Y-112903954D01*
X141122315Y-113086450D01*
X141122317Y-113086452D01*
X141253589Y-113246410D01*
X141343486Y-113320185D01*
X141413550Y-113377685D01*
X141596046Y-113475232D01*
X141794066Y-113535300D01*
X141794065Y-113535300D01*
X141812529Y-113537118D01*
X142000000Y-113555583D01*
X142205934Y-113535300D01*
X142403954Y-113475232D01*
X142586450Y-113377685D01*
X142646205Y-113328646D01*
X142710515Y-113301334D01*
X142724869Y-113300500D01*
X146409951Y-113300500D01*
X146476990Y-113320185D01*
X146497632Y-113336819D01*
X146660858Y-113500045D01*
X146660861Y-113500047D01*
X146847266Y-113630568D01*
X147053504Y-113726739D01*
X147273308Y-113785635D01*
X147435230Y-113799801D01*
X147499998Y-113805468D01*
X147500000Y-113805468D01*
X147500002Y-113805468D01*
X147556673Y-113800509D01*
X147726692Y-113785635D01*
X147946496Y-113726739D01*
X148152734Y-113630568D01*
X148339139Y-113500047D01*
X148500047Y-113339139D01*
X148630568Y-113152734D01*
X148726739Y-112946496D01*
X148785635Y-112726692D01*
X148805468Y-112500000D01*
X148805468Y-112499998D01*
X153814532Y-112499998D01*
X153814532Y-112500001D01*
X153834364Y-112726686D01*
X153834366Y-112726697D01*
X153893258Y-112946488D01*
X153893261Y-112946497D01*
X153958523Y-113086450D01*
X153989432Y-113152734D01*
X154054692Y-113245936D01*
X154119954Y-113339141D01*
X154280858Y-113500045D01*
X154280861Y-113500047D01*
X154467266Y-113630568D01*
X154673504Y-113726739D01*
X154893308Y-113785635D01*
X155055230Y-113799801D01*
X155119998Y-113805468D01*
X155120000Y-113805468D01*
X155120002Y-113805468D01*
X155176673Y-113800509D01*
X155346692Y-113785635D01*
X155566496Y-113726739D01*
X155772734Y-113630568D01*
X155959139Y-113500047D01*
X156038767Y-113420419D01*
X156122368Y-113336819D01*
X156183691Y-113303334D01*
X156210049Y-113300500D01*
X158242982Y-113300500D01*
X158310021Y-113320185D01*
X158346791Y-113356679D01*
X158351021Y-113363153D01*
X158508216Y-113533913D01*
X158508219Y-113533915D01*
X158508222Y-113533918D01*
X158691365Y-113676464D01*
X158691371Y-113676468D01*
X158691374Y-113676470D01*
X158895497Y-113786936D01*
X158949479Y-113805468D01*
X159115015Y-113862297D01*
X159115017Y-113862297D01*
X159115019Y-113862298D01*
X159343951Y-113900500D01*
X159343952Y-113900500D01*
X159576048Y-113900500D01*
X159576049Y-113900500D01*
X159804981Y-113862298D01*
X160024503Y-113786936D01*
X160228626Y-113676470D01*
X160411784Y-113533913D01*
X160420511Y-113524432D01*
X160480394Y-113488441D01*
X160550232Y-113490538D01*
X160607850Y-113530060D01*
X160627924Y-113565080D01*
X160656645Y-113642086D01*
X160656649Y-113642093D01*
X160742809Y-113757187D01*
X160742812Y-113757190D01*
X160857906Y-113843350D01*
X160857913Y-113843354D01*
X160992620Y-113893596D01*
X160992627Y-113893598D01*
X161052155Y-113899999D01*
X161052172Y-113900000D01*
X161750000Y-113900000D01*
X161750000Y-112875277D01*
X161826306Y-112919333D01*
X161940756Y-112950000D01*
X162059244Y-112950000D01*
X162173694Y-112919333D01*
X162250000Y-112875277D01*
X162250000Y-113900000D01*
X162947828Y-113900000D01*
X162947844Y-113899999D01*
X163007372Y-113893598D01*
X163007379Y-113893596D01*
X163142086Y-113843354D01*
X163142093Y-113843350D01*
X163257187Y-113757190D01*
X163257190Y-113757187D01*
X163343350Y-113642093D01*
X163343354Y-113642086D01*
X163393596Y-113507379D01*
X163393598Y-113507372D01*
X163399999Y-113447844D01*
X163400000Y-113447827D01*
X163400000Y-112750000D01*
X162375278Y-112750000D01*
X162419333Y-112673694D01*
X162450000Y-112559244D01*
X162450000Y-112440756D01*
X162419333Y-112326306D01*
X162375278Y-112250000D01*
X163400000Y-112250000D01*
X163400000Y-111552172D01*
X163399999Y-111552155D01*
X163393598Y-111492627D01*
X163393596Y-111492620D01*
X163343354Y-111357913D01*
X163343350Y-111357906D01*
X163257190Y-111242812D01*
X163257187Y-111242809D01*
X163142093Y-111156649D01*
X163142086Y-111156645D01*
X163007379Y-111106403D01*
X163007372Y-111106401D01*
X162947844Y-111100000D01*
X162250000Y-111100000D01*
X162250000Y-112124722D01*
X162173694Y-112080667D01*
X162059244Y-112050000D01*
X161940756Y-112050000D01*
X161826306Y-112080667D01*
X161750000Y-112124722D01*
X161750000Y-111100000D01*
X161052155Y-111100000D01*
X160992627Y-111106401D01*
X160992620Y-111106403D01*
X160857913Y-111156645D01*
X160857906Y-111156649D01*
X160742812Y-111242809D01*
X160742809Y-111242812D01*
X160656649Y-111357906D01*
X160656646Y-111357911D01*
X160627924Y-111434920D01*
X160586052Y-111490853D01*
X160520588Y-111515270D01*
X160452315Y-111500418D01*
X160420514Y-111475571D01*
X160411784Y-111466087D01*
X160411779Y-111466083D01*
X160411777Y-111466081D01*
X160228634Y-111323535D01*
X160228628Y-111323531D01*
X160024504Y-111213064D01*
X160024495Y-111213061D01*
X159804984Y-111137702D01*
X159617404Y-111106401D01*
X159576049Y-111099500D01*
X159343951Y-111099500D01*
X159302596Y-111106401D01*
X159115015Y-111137702D01*
X158895504Y-111213061D01*
X158895495Y-111213064D01*
X158691371Y-111323531D01*
X158691365Y-111323535D01*
X158508222Y-111466081D01*
X158508219Y-111466084D01*
X158508216Y-111466086D01*
X158508216Y-111466087D01*
X158476612Y-111500418D01*
X158351019Y-111636849D01*
X158346791Y-111643321D01*
X158293645Y-111688678D01*
X158242982Y-111699500D01*
X156210049Y-111699500D01*
X156143010Y-111679815D01*
X156122368Y-111663181D01*
X155959141Y-111499954D01*
X155772734Y-111369432D01*
X155772732Y-111369431D01*
X155566497Y-111273261D01*
X155566488Y-111273258D01*
X155346697Y-111214366D01*
X155346693Y-111214365D01*
X155346692Y-111214365D01*
X155346691Y-111214364D01*
X155346686Y-111214364D01*
X155120002Y-111194532D01*
X155119998Y-111194532D01*
X154893313Y-111214364D01*
X154893302Y-111214366D01*
X154673511Y-111273258D01*
X154673502Y-111273261D01*
X154467267Y-111369431D01*
X154467265Y-111369432D01*
X154280858Y-111499954D01*
X154119954Y-111660858D01*
X153989432Y-111847265D01*
X153989431Y-111847267D01*
X153893261Y-112053502D01*
X153893258Y-112053511D01*
X153834366Y-112273302D01*
X153834364Y-112273313D01*
X153814532Y-112499998D01*
X148805468Y-112499998D01*
X148785635Y-112273308D01*
X148726739Y-112053504D01*
X148630568Y-111847266D01*
X148525118Y-111696666D01*
X148500045Y-111660858D01*
X148339141Y-111499954D01*
X148152734Y-111369432D01*
X148152732Y-111369431D01*
X147946497Y-111273261D01*
X147946488Y-111273258D01*
X147726697Y-111214366D01*
X147726693Y-111214365D01*
X147726692Y-111214365D01*
X147726691Y-111214364D01*
X147726686Y-111214364D01*
X147500002Y-111194532D01*
X147499998Y-111194532D01*
X147273313Y-111214364D01*
X147273302Y-111214366D01*
X147053511Y-111273258D01*
X147053502Y-111273261D01*
X146847267Y-111369431D01*
X146847265Y-111369432D01*
X146660858Y-111499954D01*
X146497632Y-111663181D01*
X146436309Y-111696666D01*
X146409951Y-111699500D01*
X142724869Y-111699500D01*
X142657830Y-111679815D01*
X142646205Y-111671354D01*
X142586452Y-111622317D01*
X142586453Y-111622317D01*
X142586450Y-111622315D01*
X142403954Y-111524768D01*
X142205934Y-111464700D01*
X142205932Y-111464699D01*
X142205934Y-111464699D01*
X142000000Y-111444417D01*
X141794067Y-111464699D01*
X141596043Y-111524769D01*
X141544777Y-111552172D01*
X141413550Y-111622315D01*
X141413548Y-111622316D01*
X141413547Y-111622317D01*
X141253589Y-111753589D01*
X141122317Y-111913547D01*
X141024769Y-112096043D01*
X140964699Y-112294067D01*
X140944417Y-112500000D01*
X94914918Y-112500000D01*
X102777140Y-104637781D01*
X102886632Y-104473914D01*
X102962052Y-104291835D01*
X103000501Y-104098540D01*
X103000501Y-103901459D01*
X103000501Y-103896349D01*
X103000500Y-103896323D01*
X103000500Y-96995782D01*
X103020185Y-96928743D01*
X103036819Y-96908101D01*
X103427319Y-96517601D01*
X103488642Y-96484116D01*
X103558334Y-96489100D01*
X103602681Y-96517601D01*
X104963181Y-97878101D01*
X104996666Y-97939424D01*
X104999500Y-97965782D01*
X104999500Y-109598541D01*
X104999500Y-109598543D01*
X104999499Y-109598543D01*
X105037947Y-109791829D01*
X105037950Y-109791839D01*
X105113364Y-109973907D01*
X105113371Y-109973920D01*
X105222860Y-110137781D01*
X105222863Y-110137785D01*
X105362214Y-110277136D01*
X105362218Y-110277139D01*
X105526079Y-110386628D01*
X105526092Y-110386635D01*
X105708160Y-110462049D01*
X105708165Y-110462051D01*
X105708169Y-110462051D01*
X105708170Y-110462052D01*
X105901456Y-110500500D01*
X105901459Y-110500500D01*
X138598542Y-110500500D01*
X138617870Y-110496655D01*
X138695188Y-110481275D01*
X138791836Y-110462051D01*
X138845165Y-110439961D01*
X138973914Y-110386632D01*
X139137782Y-110277139D01*
X139277139Y-110137782D01*
X139277139Y-110137780D01*
X139287347Y-110127573D01*
X139287348Y-110127570D01*
X139536207Y-109878711D01*
X166149500Y-109878711D01*
X166149500Y-110121288D01*
X166181161Y-110361785D01*
X166243947Y-110596104D01*
X166336773Y-110820205D01*
X166336776Y-110820212D01*
X166458064Y-111030289D01*
X166458066Y-111030292D01*
X166458067Y-111030293D01*
X166605733Y-111222736D01*
X166605739Y-111222743D01*
X166777256Y-111394260D01*
X166777263Y-111394266D01*
X166870862Y-111466087D01*
X166969711Y-111541936D01*
X167179788Y-111663224D01*
X167403900Y-111756054D01*
X167638211Y-111818838D01*
X167818586Y-111842584D01*
X167878711Y-111850500D01*
X167878712Y-111850500D01*
X168121289Y-111850500D01*
X168169388Y-111844167D01*
X168361789Y-111818838D01*
X168596100Y-111756054D01*
X168820212Y-111663224D01*
X169030289Y-111541936D01*
X169222738Y-111394265D01*
X169394265Y-111222738D01*
X169541936Y-111030289D01*
X169663224Y-110820212D01*
X169756054Y-110596100D01*
X169818838Y-110361789D01*
X169850500Y-110121288D01*
X169850500Y-109878712D01*
X169818838Y-109638211D01*
X169756054Y-109403900D01*
X169663224Y-109179788D01*
X169541936Y-108969711D01*
X169394265Y-108777262D01*
X169394260Y-108777256D01*
X169222743Y-108605739D01*
X169222736Y-108605733D01*
X169030293Y-108458067D01*
X169030292Y-108458066D01*
X169030289Y-108458064D01*
X168820212Y-108336776D01*
X168820205Y-108336773D01*
X168596104Y-108243947D01*
X168361785Y-108181161D01*
X168121289Y-108149500D01*
X168121288Y-108149500D01*
X167878712Y-108149500D01*
X167878711Y-108149500D01*
X167638214Y-108181161D01*
X167403895Y-108243947D01*
X167179794Y-108336773D01*
X167179785Y-108336777D01*
X166969706Y-108458067D01*
X166777263Y-108605733D01*
X166777256Y-108605739D01*
X166605739Y-108777256D01*
X166605733Y-108777263D01*
X166458067Y-108969706D01*
X166336777Y-109179785D01*
X166336773Y-109179794D01*
X166243947Y-109403895D01*
X166181161Y-109638214D01*
X166149500Y-109878711D01*
X139536207Y-109878711D01*
X140914919Y-108500000D01*
X144444417Y-108500000D01*
X144464699Y-108705932D01*
X144464700Y-108705934D01*
X144524768Y-108903954D01*
X144622315Y-109086450D01*
X144622317Y-109086452D01*
X144753589Y-109246410D01*
X144805658Y-109289141D01*
X144913550Y-109377685D01*
X145096046Y-109475232D01*
X145294066Y-109535300D01*
X145294065Y-109535300D01*
X145312529Y-109537118D01*
X145500000Y-109555583D01*
X145705934Y-109535300D01*
X145903954Y-109475232D01*
X146086450Y-109377685D01*
X146207129Y-109278647D01*
X146271439Y-109251334D01*
X146285794Y-109250500D01*
X146409951Y-109250500D01*
X146476990Y-109270185D01*
X146497632Y-109286819D01*
X146660858Y-109450045D01*
X146660861Y-109450047D01*
X146847266Y-109580568D01*
X147053504Y-109676739D01*
X147273308Y-109735635D01*
X147435230Y-109749801D01*
X147499998Y-109755468D01*
X147500000Y-109755468D01*
X147500002Y-109755468D01*
X147556673Y-109750509D01*
X147726692Y-109735635D01*
X147946496Y-109676739D01*
X148152734Y-109580568D01*
X148339139Y-109450047D01*
X148500047Y-109289139D01*
X148630568Y-109102734D01*
X148726739Y-108896496D01*
X148785635Y-108676692D01*
X148804762Y-108458067D01*
X148805468Y-108450001D01*
X148805468Y-108449998D01*
X153814532Y-108449998D01*
X153814532Y-108450001D01*
X153834364Y-108676686D01*
X153834366Y-108676697D01*
X153893258Y-108896488D01*
X153893261Y-108896497D01*
X153989431Y-109102732D01*
X153989432Y-109102734D01*
X154119954Y-109289141D01*
X154280858Y-109450045D01*
X154280861Y-109450047D01*
X154467266Y-109580568D01*
X154673504Y-109676739D01*
X154893308Y-109735635D01*
X155055230Y-109749801D01*
X155119998Y-109755468D01*
X155120000Y-109755468D01*
X155120002Y-109755468D01*
X155176673Y-109750509D01*
X155346692Y-109735635D01*
X155566496Y-109676739D01*
X155772734Y-109580568D01*
X155959139Y-109450047D01*
X156031504Y-109377682D01*
X156122368Y-109286819D01*
X156183691Y-109253334D01*
X156210049Y-109250500D01*
X156863844Y-109250500D01*
X156863845Y-109250499D01*
X157018497Y-109219737D01*
X157164179Y-109159394D01*
X157295289Y-109071789D01*
X158943236Y-107423840D01*
X159004557Y-107390357D01*
X159051320Y-107389214D01*
X159118951Y-107400500D01*
X159118954Y-107400500D01*
X159351048Y-107400500D01*
X159351049Y-107400500D01*
X159579981Y-107362298D01*
X159799503Y-107286936D01*
X160003626Y-107176470D01*
X160019178Y-107164366D01*
X160146740Y-107065080D01*
X160186784Y-107033913D01*
X160195511Y-107024432D01*
X160255394Y-106988441D01*
X160325232Y-106990538D01*
X160382850Y-107030060D01*
X160402924Y-107065080D01*
X160431645Y-107142086D01*
X160431649Y-107142093D01*
X160517809Y-107257187D01*
X160517812Y-107257190D01*
X160632906Y-107343350D01*
X160632913Y-107343354D01*
X160767620Y-107393596D01*
X160767627Y-107393598D01*
X160827155Y-107399999D01*
X160827172Y-107400000D01*
X161525000Y-107400000D01*
X161525000Y-106375277D01*
X161601306Y-106419333D01*
X161715756Y-106450000D01*
X161834244Y-106450000D01*
X161948694Y-106419333D01*
X162025000Y-106375277D01*
X162025000Y-107400000D01*
X162722828Y-107400000D01*
X162722844Y-107399999D01*
X162782372Y-107393598D01*
X162782379Y-107393596D01*
X162917086Y-107343354D01*
X162917093Y-107343350D01*
X163032187Y-107257190D01*
X163032190Y-107257187D01*
X163118350Y-107142093D01*
X163118354Y-107142086D01*
X163168596Y-107007379D01*
X163168598Y-107007372D01*
X163174999Y-106947844D01*
X163175000Y-106947827D01*
X163175000Y-106250000D01*
X162150278Y-106250000D01*
X162194333Y-106173694D01*
X162225000Y-106059244D01*
X162225000Y-105940756D01*
X162194333Y-105826306D01*
X162150278Y-105750000D01*
X163175000Y-105750000D01*
X163175000Y-105052172D01*
X163174999Y-105052155D01*
X163168598Y-104992627D01*
X163168596Y-104992620D01*
X163118354Y-104857913D01*
X163118350Y-104857906D01*
X163032190Y-104742812D01*
X163032187Y-104742809D01*
X162917093Y-104656649D01*
X162917086Y-104656645D01*
X162782379Y-104606403D01*
X162782372Y-104606401D01*
X162722844Y-104600000D01*
X162025000Y-104600000D01*
X162025000Y-105624722D01*
X161948694Y-105580667D01*
X161834244Y-105550000D01*
X161715756Y-105550000D01*
X161601306Y-105580667D01*
X161525000Y-105624722D01*
X161525000Y-104600000D01*
X160827155Y-104600000D01*
X160767627Y-104606401D01*
X160767620Y-104606403D01*
X160632913Y-104656645D01*
X160632906Y-104656649D01*
X160517812Y-104742809D01*
X160517809Y-104742812D01*
X160431649Y-104857906D01*
X160431646Y-104857911D01*
X160402924Y-104934920D01*
X160361052Y-104990853D01*
X160295588Y-105015270D01*
X160227315Y-105000418D01*
X160195514Y-104975571D01*
X160186784Y-104966087D01*
X160186779Y-104966083D01*
X160186777Y-104966081D01*
X160003634Y-104823535D01*
X160003628Y-104823531D01*
X159799504Y-104713064D01*
X159799495Y-104713061D01*
X159579984Y-104637702D01*
X159392404Y-104606401D01*
X159351049Y-104599500D01*
X159118951Y-104599500D01*
X159077596Y-104606401D01*
X158890015Y-104637702D01*
X158670504Y-104713061D01*
X158670495Y-104713064D01*
X158466371Y-104823531D01*
X158466365Y-104823535D01*
X158283222Y-104966081D01*
X158283219Y-104966084D01*
X158283216Y-104966086D01*
X158283216Y-104966087D01*
X158258791Y-104992620D01*
X158126016Y-105136852D01*
X157999075Y-105331151D01*
X157905842Y-105543699D01*
X157848866Y-105768691D01*
X157848864Y-105768702D01*
X157829700Y-105999993D01*
X157829700Y-105999994D01*
X157829700Y-106000000D01*
X157845861Y-106195034D01*
X157831779Y-106263470D01*
X157809965Y-106292955D01*
X156489741Y-107613181D01*
X156428418Y-107646666D01*
X156402060Y-107649500D01*
X156210049Y-107649500D01*
X156143010Y-107629815D01*
X156122368Y-107613181D01*
X155959141Y-107449954D01*
X155772734Y-107319432D01*
X155772732Y-107319431D01*
X155566497Y-107223261D01*
X155566488Y-107223258D01*
X155346697Y-107164366D01*
X155346693Y-107164365D01*
X155346692Y-107164365D01*
X155346691Y-107164364D01*
X155346686Y-107164364D01*
X155120002Y-107144532D01*
X155119998Y-107144532D01*
X154893313Y-107164364D01*
X154893302Y-107164366D01*
X154673511Y-107223258D01*
X154673502Y-107223261D01*
X154467267Y-107319431D01*
X154467265Y-107319432D01*
X154280858Y-107449954D01*
X154119954Y-107610858D01*
X153989432Y-107797265D01*
X153989431Y-107797267D01*
X153893261Y-108003502D01*
X153893258Y-108003511D01*
X153834366Y-108223302D01*
X153834364Y-108223313D01*
X153814532Y-108449998D01*
X148805468Y-108449998D01*
X148795562Y-108336773D01*
X148785635Y-108223308D01*
X148726739Y-108003504D01*
X148630568Y-107797266D01*
X148508067Y-107622315D01*
X148500045Y-107610858D01*
X148339141Y-107449954D01*
X148152734Y-107319432D01*
X148152732Y-107319431D01*
X147946497Y-107223261D01*
X147946488Y-107223258D01*
X147726697Y-107164366D01*
X147726693Y-107164365D01*
X147726692Y-107164365D01*
X147726691Y-107164364D01*
X147726686Y-107164364D01*
X147500002Y-107144532D01*
X147499998Y-107144532D01*
X147273313Y-107164364D01*
X147273302Y-107164366D01*
X147053511Y-107223258D01*
X147053502Y-107223261D01*
X146847267Y-107319431D01*
X146847265Y-107319432D01*
X146660858Y-107449954D01*
X146497632Y-107613181D01*
X146436309Y-107646666D01*
X146409951Y-107649500D01*
X146163943Y-107649500D01*
X146096904Y-107629815D01*
X146088269Y-107623530D01*
X146086456Y-107622319D01*
X146086452Y-107622317D01*
X146086450Y-107622315D01*
X145903954Y-107524768D01*
X145705934Y-107464700D01*
X145705932Y-107464699D01*
X145705934Y-107464699D01*
X145500000Y-107444417D01*
X145294067Y-107464699D01*
X145096043Y-107524769D01*
X145003154Y-107574420D01*
X144913550Y-107622315D01*
X144913548Y-107622316D01*
X144913547Y-107622317D01*
X144753589Y-107753589D01*
X144622317Y-107913547D01*
X144524769Y-108096043D01*
X144464699Y-108294067D01*
X144444417Y-108500000D01*
X140914919Y-108500000D01*
X144378102Y-105036819D01*
X144439425Y-105003334D01*
X144465783Y-105000500D01*
X149098542Y-105000500D01*
X149117870Y-104996655D01*
X149195188Y-104981275D01*
X149291836Y-104962051D01*
X149345165Y-104939961D01*
X149473914Y-104886632D01*
X149637782Y-104777139D01*
X149777139Y-104637782D01*
X149777140Y-104637779D01*
X149784206Y-104630714D01*
X149784208Y-104630710D01*
X153878101Y-100536819D01*
X153939424Y-100503334D01*
X153965782Y-100500500D01*
X163098542Y-100500500D01*
X163117870Y-100496655D01*
X163195188Y-100481275D01*
X163291836Y-100462051D01*
X163345165Y-100439961D01*
X163473914Y-100386632D01*
X163637782Y-100277139D01*
X163777139Y-100137782D01*
X163777139Y-100137780D01*
X163787347Y-100127573D01*
X163787348Y-100127570D01*
X166857140Y-97057781D01*
X166893132Y-97003914D01*
X166966632Y-96893914D01*
X167042051Y-96711835D01*
X167059575Y-96623735D01*
X167080500Y-96518543D01*
X167080500Y-90975761D01*
X167100185Y-90908722D01*
X167104165Y-90902899D01*
X167192287Y-90781610D01*
X167285220Y-90599219D01*
X167348477Y-90404534D01*
X167380500Y-90202352D01*
X167380500Y-88397648D01*
X167348477Y-88195466D01*
X167345784Y-88187179D01*
X167312773Y-88085580D01*
X167285220Y-88000781D01*
X167285218Y-88000778D01*
X167285218Y-88000776D01*
X167192419Y-87818650D01*
X167192287Y-87818390D01*
X167119636Y-87718393D01*
X167071971Y-87652786D01*
X166927213Y-87508028D01*
X166761613Y-87387715D01*
X166761612Y-87387714D01*
X166761610Y-87387713D01*
X166704653Y-87358691D01*
X166579223Y-87294781D01*
X166384534Y-87231522D01*
X166209995Y-87203878D01*
X166182352Y-87199500D01*
X165977648Y-87199500D01*
X165953329Y-87203351D01*
X165775465Y-87231522D01*
X165580776Y-87294781D01*
X165398386Y-87387715D01*
X165232786Y-87508028D01*
X165088028Y-87652786D01*
X164967713Y-87818388D01*
X164920203Y-87911630D01*
X164872228Y-87962426D01*
X164804407Y-87979220D01*
X164738272Y-87956682D01*
X164699234Y-87911628D01*
X164651861Y-87818652D01*
X164531582Y-87653105D01*
X164531582Y-87653104D01*
X164386895Y-87508417D01*
X164221349Y-87388140D01*
X164039029Y-87295244D01*
X163844413Y-87232009D01*
X163790000Y-87223390D01*
X163790000Y-91376606D01*
X163844421Y-91367988D01*
X164039031Y-91304754D01*
X164221349Y-91211859D01*
X164386894Y-91091582D01*
X164386895Y-91091582D01*
X164531582Y-90946895D01*
X164531582Y-90946894D01*
X164651861Y-90781347D01*
X164699234Y-90688371D01*
X164747208Y-90637575D01*
X164815028Y-90620779D01*
X164881164Y-90643316D01*
X164920203Y-90688369D01*
X164967579Y-90781347D01*
X164967713Y-90781610D01*
X165055819Y-90902877D01*
X165079298Y-90968681D01*
X165079500Y-90975761D01*
X165079500Y-95954217D01*
X165059815Y-96021256D01*
X165043181Y-96041898D01*
X162621899Y-98463181D01*
X162560576Y-98496666D01*
X162534218Y-98499500D01*
X153401455Y-98499500D01*
X153304812Y-98518724D01*
X153208167Y-98537947D01*
X153208161Y-98537949D01*
X153154834Y-98560037D01*
X153154834Y-98560038D01*
X153109315Y-98578892D01*
X153026089Y-98613366D01*
X153026079Y-98613371D01*
X152862219Y-98722859D01*
X152809948Y-98775131D01*
X152722861Y-98862218D01*
X152722858Y-98862221D01*
X148621899Y-102963181D01*
X148560576Y-102996666D01*
X148534218Y-102999500D01*
X144104675Y-102999500D01*
X144104655Y-102999499D01*
X144098541Y-102999499D01*
X143901460Y-102999499D01*
X143901457Y-102999499D01*
X143708172Y-103037946D01*
X143708164Y-103037948D01*
X143526088Y-103113366D01*
X143526079Y-103113371D01*
X143362219Y-103222859D01*
X143362215Y-103222862D01*
X138121899Y-108463181D01*
X138060576Y-108496666D01*
X138034218Y-108499500D01*
X107124500Y-108499500D01*
X107057461Y-108479815D01*
X107011706Y-108427011D01*
X107000500Y-108375500D01*
X107000500Y-101360258D01*
X109519500Y-101360258D01*
X109519500Y-101589741D01*
X109544446Y-101779215D01*
X109549452Y-101817238D01*
X109549453Y-101817240D01*
X109608842Y-102038887D01*
X109696650Y-102250876D01*
X109696657Y-102250890D01*
X109811392Y-102449617D01*
X109951081Y-102631661D01*
X109951089Y-102631670D01*
X110113330Y-102793911D01*
X110113338Y-102793918D01*
X110295382Y-102933607D01*
X110295385Y-102933608D01*
X110295388Y-102933611D01*
X110494112Y-103048344D01*
X110494117Y-103048346D01*
X110494123Y-103048349D01*
X110585480Y-103086190D01*
X110706113Y-103136158D01*
X110927762Y-103195548D01*
X111155266Y-103225500D01*
X111155273Y-103225500D01*
X111384727Y-103225500D01*
X111384734Y-103225500D01*
X111612238Y-103195548D01*
X111833887Y-103136158D01*
X112045888Y-103048344D01*
X112244612Y-102933611D01*
X112426661Y-102793919D01*
X112426665Y-102793914D01*
X112426670Y-102793911D01*
X112588911Y-102631670D01*
X112588914Y-102631665D01*
X112588919Y-102631661D01*
X112728611Y-102449612D01*
X112843344Y-102250888D01*
X112931158Y-102038887D01*
X112990548Y-101817238D01*
X113020500Y-101589734D01*
X113020500Y-101360266D01*
X113020499Y-101360258D01*
X134029500Y-101360258D01*
X134029500Y-101589741D01*
X134054446Y-101779215D01*
X134059452Y-101817238D01*
X134059453Y-101817240D01*
X134118842Y-102038887D01*
X134206650Y-102250876D01*
X134206657Y-102250890D01*
X134321392Y-102449617D01*
X134461081Y-102631661D01*
X134461089Y-102631670D01*
X134623330Y-102793911D01*
X134623338Y-102793918D01*
X134805382Y-102933607D01*
X134805385Y-102933608D01*
X134805388Y-102933611D01*
X135004112Y-103048344D01*
X135004117Y-103048346D01*
X135004123Y-103048349D01*
X135095480Y-103086190D01*
X135216113Y-103136158D01*
X135437762Y-103195548D01*
X135665266Y-103225500D01*
X135665273Y-103225500D01*
X135894727Y-103225500D01*
X135894734Y-103225500D01*
X136122238Y-103195548D01*
X136343887Y-103136158D01*
X136555888Y-103048344D01*
X136754612Y-102933611D01*
X136936661Y-102793919D01*
X136936665Y-102793914D01*
X136936670Y-102793911D01*
X137098911Y-102631670D01*
X137098914Y-102631665D01*
X137098919Y-102631661D01*
X137238611Y-102449612D01*
X137353344Y-102250888D01*
X137441158Y-102038887D01*
X137500548Y-101817238D01*
X137530500Y-101589734D01*
X137530500Y-101360266D01*
X137500548Y-101132762D01*
X137441158Y-100911113D01*
X137353344Y-100699112D01*
X137238611Y-100500388D01*
X137238608Y-100500385D01*
X137238607Y-100500382D01*
X137098918Y-100318338D01*
X137098911Y-100318330D01*
X136936670Y-100156089D01*
X136936661Y-100156081D01*
X136754617Y-100016392D01*
X136555890Y-99901657D01*
X136555876Y-99901650D01*
X136343887Y-99813842D01*
X136122238Y-99754452D01*
X136084215Y-99749446D01*
X135894741Y-99724500D01*
X135894734Y-99724500D01*
X135665266Y-99724500D01*
X135665258Y-99724500D01*
X135448715Y-99753009D01*
X135437762Y-99754452D01*
X135344076Y-99779554D01*
X135216112Y-99813842D01*
X135004123Y-99901650D01*
X135004109Y-99901657D01*
X134805382Y-100016392D01*
X134623338Y-100156081D01*
X134461081Y-100318338D01*
X134321392Y-100500382D01*
X134206657Y-100699109D01*
X134206650Y-100699123D01*
X134118842Y-100911112D01*
X134059453Y-101132759D01*
X134059451Y-101132770D01*
X134029500Y-101360258D01*
X113020499Y-101360258D01*
X112990548Y-101132762D01*
X112931158Y-100911113D01*
X112843344Y-100699112D01*
X112728611Y-100500388D01*
X112728608Y-100500385D01*
X112728607Y-100500382D01*
X112588918Y-100318338D01*
X112588911Y-100318330D01*
X112426670Y-100156089D01*
X112426661Y-100156081D01*
X112244617Y-100016392D01*
X112045890Y-99901657D01*
X112045876Y-99901650D01*
X111833887Y-99813842D01*
X111612238Y-99754452D01*
X111574215Y-99749446D01*
X111384741Y-99724500D01*
X111384734Y-99724500D01*
X111155266Y-99724500D01*
X111155258Y-99724500D01*
X110938715Y-99753009D01*
X110927762Y-99754452D01*
X110834076Y-99779554D01*
X110706112Y-99813842D01*
X110494123Y-99901650D01*
X110494109Y-99901657D01*
X110295382Y-100016392D01*
X110113338Y-100156081D01*
X109951081Y-100318338D01*
X109811392Y-100500382D01*
X109696657Y-100699109D01*
X109696650Y-100699123D01*
X109608842Y-100911112D01*
X109549453Y-101132759D01*
X109549451Y-101132770D01*
X109519500Y-101360258D01*
X107000500Y-101360258D01*
X107000500Y-97401458D01*
X107000499Y-97401457D01*
X106994121Y-97369389D01*
X106962052Y-97208165D01*
X106899763Y-97057786D01*
X106886633Y-97026088D01*
X106886628Y-97026079D01*
X106777140Y-96862219D01*
X106777137Y-96862215D01*
X105017601Y-95102681D01*
X104984116Y-95041358D01*
X104989100Y-94971667D01*
X105017601Y-94927319D01*
X105187586Y-94757335D01*
X105393102Y-94551819D01*
X105454425Y-94518334D01*
X105480783Y-94515500D01*
X109627145Y-94515500D01*
X109694184Y-94535185D01*
X109718374Y-94555517D01*
X109779382Y-94621789D01*
X109780256Y-94622738D01*
X109976491Y-94775474D01*
X110195190Y-94893828D01*
X110430386Y-94974571D01*
X110675665Y-95015500D01*
X110924335Y-95015500D01*
X111169614Y-94974571D01*
X111404810Y-94893828D01*
X111623509Y-94775474D01*
X111819744Y-94622738D01*
X111988164Y-94439785D01*
X112124173Y-94231607D01*
X112224063Y-94003881D01*
X112285108Y-93762821D01*
X112285109Y-93762812D01*
X112305643Y-93515005D01*
X112305643Y-93514994D01*
X112285109Y-93267187D01*
X112285107Y-93267175D01*
X112224063Y-93026118D01*
X112124173Y-92798393D01*
X111988166Y-92590217D01*
X111881625Y-92474483D01*
X111819744Y-92407262D01*
X111716253Y-92326712D01*
X111675442Y-92270003D01*
X111668655Y-92221176D01*
X111670056Y-92198609D01*
X110937575Y-91466128D01*
X110996853Y-91450245D01*
X111113147Y-91383102D01*
X111208102Y-91288147D01*
X111275245Y-91171853D01*
X111291127Y-91112575D01*
X112023434Y-91844882D01*
X112123731Y-91691369D01*
X112223587Y-91463717D01*
X112284612Y-91222738D01*
X112284614Y-91222729D01*
X112305141Y-90975005D01*
X112305141Y-90974994D01*
X112284614Y-90727270D01*
X112284612Y-90727261D01*
X112223587Y-90486282D01*
X112123731Y-90258630D01*
X112023434Y-90105116D01*
X111291127Y-90837423D01*
X111275245Y-90778147D01*
X111208102Y-90661853D01*
X111113147Y-90566898D01*
X110996853Y-90499755D01*
X110937575Y-90483872D01*
X111670056Y-89751390D01*
X111668655Y-89728825D01*
X111684147Y-89660694D01*
X111716250Y-89623290D01*
X111819744Y-89542738D01*
X111988164Y-89359785D01*
X112124173Y-89151607D01*
X112224063Y-88923881D01*
X112285108Y-88682821D01*
X112305643Y-88435000D01*
X112286591Y-88205081D01*
X112285109Y-88187187D01*
X112285107Y-88187175D01*
X112224063Y-87946118D01*
X112124173Y-87718393D01*
X111988166Y-87510217D01*
X111966557Y-87486744D01*
X111819744Y-87327262D01*
X111736991Y-87262852D01*
X111696179Y-87206143D01*
X111692504Y-87136370D01*
X111727136Y-87075687D01*
X111736985Y-87067151D01*
X111819744Y-87002738D01*
X111988164Y-86819785D01*
X112124173Y-86611607D01*
X112224063Y-86383881D01*
X112285108Y-86142821D01*
X112296805Y-86001660D01*
X112305643Y-85895005D01*
X112305643Y-85894994D01*
X112285109Y-85647187D01*
X112285107Y-85647175D01*
X112224063Y-85406118D01*
X112124173Y-85178393D01*
X111988166Y-84970217D01*
X111966557Y-84946744D01*
X111819744Y-84787262D01*
X111736991Y-84722852D01*
X111696179Y-84666143D01*
X111692504Y-84596370D01*
X111727136Y-84535687D01*
X111736985Y-84527151D01*
X111819744Y-84462738D01*
X111988164Y-84279785D01*
X112124173Y-84071607D01*
X112224063Y-83843881D01*
X112285108Y-83602821D01*
X112285350Y-83599901D01*
X112305643Y-83355005D01*
X112305643Y-83354994D01*
X112285109Y-83107187D01*
X112285107Y-83107175D01*
X112224063Y-82866118D01*
X112124173Y-82638393D01*
X111988166Y-82430217D01*
X111966557Y-82406744D01*
X111819744Y-82247262D01*
X111736991Y-82182852D01*
X111696179Y-82126143D01*
X111692504Y-82056370D01*
X111727136Y-81995687D01*
X111736985Y-81987151D01*
X111819744Y-81922738D01*
X111988164Y-81739785D01*
X112124173Y-81531607D01*
X112224063Y-81303881D01*
X112285108Y-81062821D01*
X112291166Y-80989711D01*
X112305643Y-80815005D01*
X112305643Y-80814994D01*
X112285109Y-80567187D01*
X112285107Y-80567175D01*
X112224063Y-80326118D01*
X112124173Y-80098393D01*
X111988164Y-79890215D01*
X111929578Y-79826574D01*
X111819744Y-79707262D01*
X111736991Y-79642852D01*
X111696179Y-79586143D01*
X111692504Y-79516370D01*
X111727136Y-79455687D01*
X111736985Y-79447151D01*
X111819744Y-79382738D01*
X111988164Y-79199785D01*
X112124173Y-78991607D01*
X112224063Y-78763881D01*
X112285108Y-78522821D01*
X112285109Y-78522812D01*
X112305643Y-78275005D01*
X112305643Y-78274994D01*
X112285109Y-78027187D01*
X112285107Y-78027175D01*
X112224063Y-77786118D01*
X112124173Y-77558393D01*
X111988166Y-77350217D01*
X111966557Y-77326744D01*
X111819744Y-77167262D01*
X111736991Y-77102852D01*
X111696179Y-77046143D01*
X111692504Y-76976370D01*
X111727136Y-76915687D01*
X111736985Y-76907151D01*
X111819744Y-76842738D01*
X111988164Y-76659785D01*
X112124173Y-76451607D01*
X112224063Y-76223881D01*
X112285108Y-75982821D01*
X112305643Y-75735000D01*
X112285108Y-75487179D01*
X112224063Y-75246119D01*
X112124173Y-75018393D01*
X112084626Y-74957861D01*
X111988166Y-74810217D01*
X111881625Y-74694483D01*
X111819744Y-74627262D01*
X111736991Y-74562852D01*
X111696179Y-74506143D01*
X111692504Y-74436370D01*
X111727136Y-74375687D01*
X111736985Y-74367151D01*
X111819744Y-74302738D01*
X111988164Y-74119785D01*
X112124173Y-73911607D01*
X112224063Y-73683881D01*
X112285108Y-73442821D01*
X112305643Y-73195000D01*
X112286649Y-72965782D01*
X112285109Y-72947187D01*
X112285107Y-72947175D01*
X112224063Y-72706118D01*
X112124173Y-72478393D01*
X111988166Y-72270217D01*
X111931042Y-72208164D01*
X111819744Y-72087262D01*
X111736991Y-72022852D01*
X111696179Y-71966143D01*
X111692504Y-71896370D01*
X111727136Y-71835687D01*
X111736985Y-71827151D01*
X111819744Y-71762738D01*
X111988164Y-71579785D01*
X112124173Y-71371607D01*
X112224063Y-71143881D01*
X112285108Y-70902821D01*
X112287887Y-70869285D01*
X112305643Y-70655005D01*
X112305643Y-70654994D01*
X112285109Y-70407187D01*
X112285107Y-70407175D01*
X112224063Y-70166118D01*
X112124173Y-69938393D01*
X111988166Y-69730217D01*
X111966557Y-69706744D01*
X111819744Y-69547262D01*
X111736991Y-69482852D01*
X111696179Y-69426143D01*
X111692504Y-69356370D01*
X111727136Y-69295687D01*
X111736985Y-69287151D01*
X111819744Y-69222738D01*
X111988164Y-69039785D01*
X112124173Y-68831607D01*
X112224063Y-68603881D01*
X112285108Y-68362821D01*
X112305643Y-68115000D01*
X112285108Y-67867179D01*
X112224063Y-67626119D01*
X112124173Y-67398393D01*
X111988166Y-67190217D01*
X111966557Y-67166744D01*
X111819744Y-67007262D01*
X111736991Y-66942852D01*
X111696179Y-66886143D01*
X111692504Y-66816370D01*
X111727136Y-66755687D01*
X111736985Y-66747151D01*
X111819744Y-66682738D01*
X111988164Y-66499785D01*
X112124173Y-66291607D01*
X112224063Y-66063881D01*
X112285108Y-65822821D01*
X112289646Y-65768059D01*
X112305643Y-65575005D01*
X112305643Y-65574994D01*
X112285109Y-65327187D01*
X112285107Y-65327175D01*
X112224063Y-65086118D01*
X112124173Y-64858393D01*
X111988166Y-64650217D01*
X111966557Y-64626744D01*
X111819744Y-64467262D01*
X111736991Y-64402852D01*
X111696179Y-64346143D01*
X111692504Y-64276370D01*
X111727136Y-64215687D01*
X111736985Y-64207151D01*
X111819744Y-64142738D01*
X111988164Y-63959785D01*
X112124173Y-63751607D01*
X112224063Y-63523881D01*
X112285108Y-63282821D01*
X112285722Y-63275413D01*
X112305643Y-63035005D01*
X112305643Y-63034994D01*
X112285109Y-62787187D01*
X112285107Y-62787175D01*
X112224063Y-62546118D01*
X112124173Y-62318393D01*
X111988166Y-62110217D01*
X111966557Y-62086744D01*
X111819744Y-61927262D01*
X111736991Y-61862852D01*
X111696179Y-61806143D01*
X111692504Y-61736370D01*
X111727136Y-61675687D01*
X111736985Y-61667151D01*
X111819744Y-61602738D01*
X111988164Y-61419785D01*
X112124173Y-61211607D01*
X112224063Y-60983881D01*
X112285108Y-60742821D01*
X112297309Y-60595582D01*
X112305643Y-60495005D01*
X112305643Y-60494994D01*
X112285109Y-60247187D01*
X112285107Y-60247175D01*
X112224063Y-60006118D01*
X112124173Y-59778393D01*
X111988166Y-59570217D01*
X111931906Y-59509103D01*
X111819744Y-59387262D01*
X111736991Y-59322852D01*
X111696179Y-59266143D01*
X111692504Y-59196370D01*
X111727136Y-59135687D01*
X111736985Y-59127151D01*
X111819744Y-59062738D01*
X111988164Y-58879785D01*
X112124173Y-58671607D01*
X112224063Y-58443881D01*
X112285108Y-58202821D01*
X112285109Y-58202812D01*
X112305643Y-57955005D01*
X112305643Y-57954994D01*
X112285109Y-57707187D01*
X112285107Y-57707175D01*
X112224063Y-57466118D01*
X112124173Y-57238393D01*
X111988166Y-57030217D01*
X111966557Y-57006744D01*
X111819744Y-56847262D01*
X111623509Y-56694526D01*
X111623507Y-56694525D01*
X111623506Y-56694524D01*
X111404811Y-56576172D01*
X111404802Y-56576169D01*
X111231812Y-56516781D01*
X111174797Y-56476395D01*
X111148666Y-56411596D01*
X111161718Y-56342956D01*
X111209806Y-56292268D01*
X111272075Y-56275500D01*
X111384727Y-56275500D01*
X111384734Y-56275500D01*
X111612238Y-56245548D01*
X111833887Y-56186158D01*
X112045888Y-56098344D01*
X112244612Y-55983611D01*
X112426661Y-55843919D01*
X112426665Y-55843914D01*
X112426670Y-55843911D01*
X112588911Y-55681670D01*
X112588914Y-55681665D01*
X112588919Y-55681661D01*
X112728611Y-55499612D01*
X112843344Y-55300888D01*
X112931158Y-55088887D01*
X112990548Y-54867238D01*
X113020500Y-54639734D01*
X113020500Y-54410266D01*
X112990548Y-54182762D01*
X112931158Y-53961113D01*
X112843344Y-53749112D01*
X112728611Y-53550388D01*
X112728608Y-53550385D01*
X112728607Y-53550382D01*
X112588918Y-53368338D01*
X112588911Y-53368330D01*
X112426670Y-53206089D01*
X112426661Y-53206081D01*
X112244617Y-53066392D01*
X112045890Y-52951657D01*
X112045876Y-52951650D01*
X111833887Y-52863842D01*
X111612238Y-52804452D01*
X111574215Y-52799446D01*
X111384741Y-52774500D01*
X111384734Y-52774500D01*
X111155266Y-52774500D01*
X111155258Y-52774500D01*
X110938715Y-52803009D01*
X110927762Y-52804452D01*
X110834076Y-52829554D01*
X110706112Y-52863842D01*
X110494123Y-52951650D01*
X110494109Y-52951657D01*
X110295382Y-53066392D01*
X110113338Y-53206081D01*
X109951081Y-53368338D01*
X109811392Y-53550382D01*
X109696657Y-53749109D01*
X109696650Y-53749123D01*
X109608842Y-53961112D01*
X109549453Y-54182759D01*
X109549451Y-54182770D01*
X109519500Y-54410258D01*
X109519500Y-54639741D01*
X109544446Y-54829215D01*
X109549452Y-54867238D01*
X109608842Y-55088887D01*
X109696650Y-55300876D01*
X109696657Y-55300890D01*
X109811392Y-55499617D01*
X109951081Y-55681661D01*
X109951089Y-55681670D01*
X110113330Y-55843911D01*
X110113338Y-55843918D01*
X110295382Y-55983607D01*
X110295385Y-55983608D01*
X110295388Y-55983611D01*
X110494112Y-56098344D01*
X110494117Y-56098346D01*
X110494123Y-56098349D01*
X110585480Y-56136190D01*
X110706113Y-56186158D01*
X110797802Y-56210725D01*
X110857462Y-56247090D01*
X110887991Y-56309937D01*
X110879696Y-56379312D01*
X110835211Y-56433190D01*
X110768659Y-56454465D01*
X110765708Y-56454500D01*
X110675665Y-56454500D01*
X110430383Y-56495429D01*
X110195197Y-56576169D01*
X110195188Y-56576172D01*
X109976493Y-56694524D01*
X109780257Y-56847261D01*
X109611833Y-57030217D01*
X109475826Y-57238393D01*
X109375936Y-57466118D01*
X109314892Y-57707175D01*
X109314890Y-57707187D01*
X109294357Y-57954994D01*
X109294357Y-57955005D01*
X109314890Y-58202812D01*
X109314892Y-58202824D01*
X109375936Y-58443881D01*
X109475826Y-58671606D01*
X109611833Y-58879782D01*
X109611836Y-58879785D01*
X109780256Y-59062738D01*
X109863008Y-59127147D01*
X109903821Y-59183857D01*
X109907496Y-59253630D01*
X109872864Y-59314313D01*
X109863014Y-59322848D01*
X109823793Y-59353376D01*
X109780257Y-59387261D01*
X109611833Y-59570217D01*
X109475826Y-59778393D01*
X109375936Y-60006118D01*
X109314892Y-60247175D01*
X109314890Y-60247187D01*
X109294357Y-60494994D01*
X109294357Y-60495005D01*
X109314890Y-60742812D01*
X109314892Y-60742824D01*
X109375936Y-60983881D01*
X109475826Y-61211606D01*
X109611833Y-61419782D01*
X109611836Y-61419785D01*
X109780256Y-61602738D01*
X109863008Y-61667147D01*
X109903821Y-61723857D01*
X109907496Y-61793630D01*
X109872864Y-61854313D01*
X109863014Y-61862848D01*
X109834964Y-61884681D01*
X109780257Y-61927261D01*
X109611833Y-62110217D01*
X109475826Y-62318393D01*
X109375936Y-62546118D01*
X109314892Y-62787175D01*
X109314890Y-62787187D01*
X109294357Y-63034994D01*
X109294357Y-63035005D01*
X109314890Y-63282812D01*
X109314892Y-63282824D01*
X109375936Y-63523881D01*
X109475826Y-63751606D01*
X109611833Y-63959782D01*
X109611836Y-63959785D01*
X109780256Y-64142738D01*
X109863008Y-64207147D01*
X109903821Y-64263857D01*
X109907496Y-64333630D01*
X109872864Y-64394313D01*
X109863014Y-64402848D01*
X109851411Y-64411880D01*
X109780257Y-64467261D01*
X109611833Y-64650217D01*
X109475826Y-64858393D01*
X109375936Y-65086118D01*
X109314892Y-65327175D01*
X109314890Y-65327187D01*
X109294357Y-65574994D01*
X109294357Y-65575005D01*
X109314890Y-65822812D01*
X109314892Y-65822824D01*
X109375936Y-66063881D01*
X109475826Y-66291606D01*
X109611833Y-66499782D01*
X109611836Y-66499785D01*
X109780256Y-66682738D01*
X109863008Y-66747147D01*
X109903821Y-66803857D01*
X109907496Y-66873630D01*
X109872864Y-66934313D01*
X109863014Y-66942848D01*
X109804400Y-66988469D01*
X109780257Y-67007261D01*
X109611833Y-67190217D01*
X109475826Y-67398393D01*
X109375936Y-67626118D01*
X109314892Y-67867175D01*
X109314890Y-67867187D01*
X109294357Y-68114994D01*
X109294357Y-68115005D01*
X109314890Y-68362812D01*
X109314892Y-68362824D01*
X109375936Y-68603881D01*
X109475826Y-68831606D01*
X109611833Y-69039782D01*
X109611836Y-69039785D01*
X109780256Y-69222738D01*
X109863008Y-69287147D01*
X109903821Y-69343857D01*
X109907496Y-69413630D01*
X109872864Y-69474313D01*
X109863014Y-69482848D01*
X109804400Y-69528469D01*
X109780257Y-69547261D01*
X109611833Y-69730217D01*
X109475826Y-69938393D01*
X109375936Y-70166118D01*
X109314892Y-70407175D01*
X109314890Y-70407187D01*
X109294357Y-70654994D01*
X109294357Y-70655005D01*
X109314890Y-70902812D01*
X109314892Y-70902824D01*
X109375936Y-71143881D01*
X109475826Y-71371606D01*
X109611833Y-71579782D01*
X109611836Y-71579785D01*
X109780256Y-71762738D01*
X109863008Y-71827147D01*
X109903821Y-71883857D01*
X109907496Y-71953630D01*
X109872864Y-72014313D01*
X109863014Y-72022848D01*
X109804400Y-72068469D01*
X109780257Y-72087261D01*
X109611833Y-72270217D01*
X109475826Y-72478393D01*
X109375936Y-72706118D01*
X109314892Y-72947175D01*
X109314890Y-72947187D01*
X109294357Y-73194994D01*
X109294357Y-73195005D01*
X109314890Y-73442812D01*
X109314892Y-73442824D01*
X109375936Y-73683881D01*
X109475826Y-73911606D01*
X109611833Y-74119782D01*
X109611836Y-74119785D01*
X109780256Y-74302738D01*
X109863008Y-74367147D01*
X109903821Y-74423857D01*
X109907496Y-74493630D01*
X109872864Y-74554313D01*
X109863014Y-74562848D01*
X109804400Y-74608469D01*
X109780257Y-74627261D01*
X109611833Y-74810217D01*
X109475826Y-75018393D01*
X109375936Y-75246118D01*
X109314892Y-75487175D01*
X109314890Y-75487187D01*
X109294357Y-75734994D01*
X109294357Y-75735005D01*
X109314890Y-75982812D01*
X109314892Y-75982824D01*
X109375936Y-76223881D01*
X109475826Y-76451606D01*
X109611833Y-76659782D01*
X109611836Y-76659785D01*
X109780256Y-76842738D01*
X109863008Y-76907147D01*
X109903821Y-76963857D01*
X109907496Y-77033630D01*
X109872864Y-77094313D01*
X109863014Y-77102848D01*
X109858701Y-77106206D01*
X109780257Y-77167261D01*
X109611833Y-77350217D01*
X109475826Y-77558393D01*
X109375936Y-77786118D01*
X109314892Y-78027175D01*
X109314890Y-78027187D01*
X109294357Y-78274994D01*
X109294357Y-78275005D01*
X109314890Y-78522812D01*
X109314892Y-78522824D01*
X109375936Y-78763881D01*
X109475826Y-78991606D01*
X109611833Y-79199782D01*
X109611836Y-79199785D01*
X109780256Y-79382738D01*
X109863008Y-79447147D01*
X109903821Y-79503857D01*
X109907496Y-79573630D01*
X109872864Y-79634313D01*
X109863014Y-79642848D01*
X109804400Y-79688469D01*
X109780257Y-79707261D01*
X109611836Y-79890215D01*
X109475826Y-80098393D01*
X109375935Y-80326122D01*
X109375935Y-80326123D01*
X109333984Y-80491780D01*
X109298445Y-80551936D01*
X109236024Y-80583327D01*
X109166541Y-80575989D01*
X109126098Y-80549020D01*
X105836819Y-77259741D01*
X105803334Y-77198418D01*
X105800500Y-77172060D01*
X105800500Y-52921155D01*
X105800499Y-52921153D01*
X105789099Y-52863842D01*
X105769737Y-52766503D01*
X105769735Y-52766498D01*
X105709397Y-52620827D01*
X105709390Y-52620814D01*
X105621790Y-52489712D01*
X105621789Y-52489711D01*
X105510289Y-52378211D01*
X99510292Y-46378213D01*
X99510288Y-46378210D01*
X99379185Y-46290609D01*
X99379172Y-46290602D01*
X99233501Y-46230264D01*
X99233489Y-46230261D01*
X99078845Y-46199500D01*
X99078842Y-46199500D01*
X95732691Y-46199500D01*
X95665652Y-46179815D01*
X95631116Y-46146624D01*
X95618491Y-46128594D01*
X95451402Y-45961506D01*
X95451395Y-45961501D01*
X95446486Y-45958064D01*
X95374854Y-45907906D01*
X95257834Y-45825967D01*
X95257830Y-45825965D01*
X95186727Y-45792809D01*
X95043663Y-45726097D01*
X95043659Y-45726096D01*
X95043655Y-45726094D01*
X94815413Y-45664938D01*
X94815403Y-45664936D01*
X94580001Y-45644341D01*
X94579999Y-45644341D01*
X94344596Y-45664936D01*
X94344586Y-45664938D01*
X94116344Y-45726094D01*
X94116335Y-45726098D01*
X93902171Y-45825964D01*
X93902169Y-45825965D01*
X93708597Y-45961505D01*
X93541505Y-46128597D01*
X93411575Y-46314158D01*
X93356998Y-46357783D01*
X93287500Y-46364977D01*
X93225145Y-46333454D01*
X93208425Y-46314158D01*
X93078494Y-46128597D01*
X92911402Y-45961506D01*
X92911395Y-45961501D01*
X92906486Y-45958064D01*
X92834854Y-45907906D01*
X92717834Y-45825967D01*
X92717830Y-45825965D01*
X92646727Y-45792809D01*
X92503663Y-45726097D01*
X92503659Y-45726096D01*
X92503655Y-45726094D01*
X92275413Y-45664938D01*
X92275403Y-45664936D01*
X92040001Y-45644341D01*
X92039999Y-45644341D01*
X91804596Y-45664936D01*
X91804586Y-45664938D01*
X91576344Y-45726094D01*
X91576335Y-45726098D01*
X91362171Y-45825964D01*
X91362169Y-45825965D01*
X91168600Y-45961503D01*
X91046284Y-46083819D01*
X90984961Y-46117303D01*
X90915269Y-46112319D01*
X90859336Y-46070447D01*
X90842421Y-46039470D01*
X90793354Y-45907913D01*
X90793350Y-45907906D01*
X90707190Y-45792812D01*
X90707187Y-45792809D01*
X90592093Y-45706649D01*
X90592086Y-45706645D01*
X90457379Y-45656403D01*
X90457372Y-45656401D01*
X90397844Y-45650000D01*
X89750000Y-45650000D01*
X89750000Y-46566988D01*
X89692993Y-46534075D01*
X89565826Y-46500000D01*
X89434174Y-46500000D01*
X89307007Y-46534075D01*
X89250000Y-46566988D01*
X89250000Y-45650000D01*
X88602155Y-45650000D01*
X88542627Y-45656401D01*
X88542620Y-45656403D01*
X88407913Y-45706645D01*
X88407906Y-45706649D01*
X88292812Y-45792809D01*
X88292809Y-45792812D01*
X88206649Y-45907906D01*
X88206645Y-45907913D01*
X88156403Y-46042620D01*
X88156401Y-46042627D01*
X88150000Y-46102155D01*
X88150000Y-46750000D01*
X89066988Y-46750000D01*
X89034075Y-46807007D01*
X89000000Y-46934174D01*
X89000000Y-47065826D01*
X89034075Y-47192993D01*
X89066988Y-47250000D01*
X88150000Y-47250000D01*
X88150000Y-47897844D01*
X88156401Y-47957372D01*
X88156403Y-47957379D01*
X88206645Y-48092086D01*
X88206649Y-48092093D01*
X88292809Y-48207187D01*
X88292812Y-48207190D01*
X88407906Y-48293350D01*
X88407913Y-48293354D01*
X88542620Y-48343596D01*
X88542627Y-48343598D01*
X88602155Y-48349999D01*
X88602172Y-48350000D01*
X89250000Y-48350000D01*
X89250000Y-47433012D01*
X89307007Y-47465925D01*
X89434174Y-47500000D01*
X89565826Y-47500000D01*
X89692993Y-47465925D01*
X89750000Y-47433012D01*
X89750000Y-48350000D01*
X90397828Y-48350000D01*
X90397844Y-48349999D01*
X90457372Y-48343598D01*
X90457379Y-48343596D01*
X90592086Y-48293354D01*
X90592093Y-48293350D01*
X90707187Y-48207190D01*
X90707190Y-48207187D01*
X90793350Y-48092093D01*
X90793354Y-48092086D01*
X90842422Y-47960529D01*
X90884293Y-47904595D01*
X90949757Y-47880178D01*
X91018030Y-47895030D01*
X91046285Y-47916181D01*
X91168599Y-48038495D01*
X91245135Y-48092086D01*
X91362165Y-48174032D01*
X91362167Y-48174033D01*
X91362170Y-48174035D01*
X91427904Y-48204687D01*
X91480344Y-48250859D01*
X91499500Y-48317069D01*
X91499500Y-53375500D01*
X91479815Y-53442539D01*
X91427011Y-53488294D01*
X91375500Y-53499500D01*
X81401457Y-53499500D01*
X81208170Y-53537947D01*
X81208160Y-53537950D01*
X81026092Y-53613364D01*
X81026079Y-53613371D01*
X80862218Y-53722860D01*
X80862214Y-53722863D01*
X80722863Y-53862214D01*
X80722860Y-53862218D01*
X80613371Y-54026079D01*
X80613364Y-54026092D01*
X80537950Y-54208160D01*
X80537947Y-54208170D01*
X80499500Y-54401456D01*
X80499500Y-59085858D01*
X80479815Y-59152897D01*
X80427011Y-59198652D01*
X80418847Y-59202034D01*
X80407669Y-59206204D01*
X80407664Y-59206206D01*
X80292455Y-59292452D01*
X80292452Y-59292455D01*
X80206206Y-59407664D01*
X80206204Y-59407668D01*
X80206204Y-59407669D01*
X80202039Y-59418834D01*
X80160171Y-59474766D01*
X80094707Y-59499184D01*
X80085859Y-59499500D01*
X76401457Y-59499500D01*
X76208170Y-59537947D01*
X76208160Y-59537950D01*
X76026092Y-59613364D01*
X76026079Y-59613371D01*
X75862218Y-59722860D01*
X75862214Y-59722863D01*
X75722863Y-59862214D01*
X75722860Y-59862218D01*
X75613371Y-60026079D01*
X75613364Y-60026092D01*
X75537950Y-60208160D01*
X75537947Y-60208170D01*
X75499500Y-60401456D01*
X75499500Y-60401459D01*
X75499500Y-70598541D01*
X75499500Y-70598543D01*
X75499499Y-70598543D01*
X75537947Y-70791829D01*
X75537950Y-70791839D01*
X75613364Y-70973907D01*
X75613371Y-70973920D01*
X75722859Y-71137780D01*
X75722860Y-71137781D01*
X75722861Y-71137782D01*
X75862218Y-71277139D01*
X75862219Y-71277139D01*
X75869286Y-71284206D01*
X75869285Y-71284206D01*
X75869289Y-71284209D01*
X76862215Y-72277137D01*
X76862219Y-72277140D01*
X77026079Y-72386628D01*
X77026088Y-72386633D01*
X77061884Y-72401460D01*
X77208165Y-72462052D01*
X77401455Y-72500500D01*
X77401458Y-72500501D01*
X77401460Y-72500501D01*
X77604655Y-72500501D01*
X77604675Y-72500500D01*
X95534218Y-72500500D01*
X95601257Y-72520185D01*
X95621899Y-72536819D01*
X95963181Y-72878101D01*
X95996666Y-72939424D01*
X95999500Y-72965782D01*
X95999500Y-88598541D01*
X96013415Y-88668497D01*
X96032215Y-88763011D01*
X96037521Y-88789687D01*
X96037949Y-88791837D01*
X96037949Y-88791838D01*
X96113364Y-88973907D01*
X96113371Y-88973920D01*
X96222859Y-89137780D01*
X96222860Y-89137781D01*
X96222861Y-89137782D01*
X96362218Y-89277139D01*
X96362219Y-89277139D01*
X96369286Y-89284206D01*
X96369285Y-89284206D01*
X96369288Y-89284208D01*
X102012399Y-94927320D01*
X102045883Y-94988641D01*
X102040899Y-95058333D01*
X102012398Y-95102680D01*
X101626165Y-95488914D01*
X101362220Y-95752859D01*
X101362218Y-95752861D01*
X101292538Y-95822540D01*
X101222859Y-95892219D01*
X101113371Y-96056079D01*
X101113364Y-96056092D01*
X101037950Y-96238160D01*
X101037947Y-96238170D01*
X100999500Y-96431456D01*
X100999500Y-103534217D01*
X100979815Y-103601256D01*
X100963181Y-103621898D01*
X93391899Y-111193181D01*
X93330576Y-111226666D01*
X93304218Y-111229500D01*
X89851338Y-111229500D01*
X89784299Y-111209815D01*
X89780232Y-111207087D01*
X89673662Y-111132466D01*
X89473450Y-111039106D01*
X89473447Y-111039105D01*
X89473445Y-111039104D01*
X89260070Y-110981930D01*
X89260062Y-110981929D01*
X89040002Y-110962677D01*
X89039998Y-110962677D01*
X88819937Y-110981929D01*
X88819929Y-110981930D01*
X88606554Y-111039104D01*
X88606548Y-111039107D01*
X88406340Y-111132465D01*
X88406338Y-111132466D01*
X88225377Y-111259175D01*
X88069175Y-111415377D01*
X87942467Y-111596337D01*
X87882105Y-111725782D01*
X87835932Y-111778221D01*
X87768738Y-111797372D01*
X87701857Y-111777156D01*
X87657341Y-111725780D01*
X87597098Y-111596589D01*
X87597097Y-111596587D01*
X87551741Y-111531811D01*
X87551740Y-111531810D01*
X86881000Y-112202551D01*
X86881000Y-112179840D01*
X86855036Y-112082939D01*
X86804876Y-111996060D01*
X86733940Y-111925124D01*
X86647061Y-111874964D01*
X86550160Y-111849000D01*
X86527448Y-111849000D01*
X87198188Y-111178259D01*
X87198187Y-111178258D01*
X87133411Y-111132901D01*
X87133405Y-111132898D01*
X86933284Y-111039580D01*
X86933270Y-111039575D01*
X86719986Y-110982426D01*
X86719976Y-110982424D01*
X86500001Y-110963179D01*
X86499999Y-110963179D01*
X86280023Y-110982424D01*
X86280013Y-110982426D01*
X86066729Y-111039575D01*
X86066720Y-111039579D01*
X85866590Y-111132901D01*
X85801811Y-111178258D01*
X86472553Y-111849000D01*
X86449840Y-111849000D01*
X86352939Y-111874964D01*
X86266060Y-111925124D01*
X86195124Y-111996060D01*
X86144964Y-112082939D01*
X86119000Y-112179840D01*
X86119000Y-112202553D01*
X85448258Y-111531811D01*
X85402901Y-111596590D01*
X85342658Y-111725781D01*
X85296485Y-111778220D01*
X85229292Y-111797372D01*
X85162411Y-111777156D01*
X85117894Y-111725781D01*
X85100592Y-111688678D01*
X85057534Y-111596339D01*
X84944508Y-111434920D01*
X84930827Y-111415381D01*
X84873352Y-111357906D01*
X84774620Y-111259174D01*
X84774616Y-111259171D01*
X84774615Y-111259170D01*
X84593666Y-111132468D01*
X84593662Y-111132466D01*
X84524038Y-111100000D01*
X84393450Y-111039106D01*
X84393447Y-111039105D01*
X84393445Y-111039104D01*
X84180070Y-110981930D01*
X84180062Y-110981929D01*
X83960002Y-110962677D01*
X83959998Y-110962677D01*
X83739937Y-110981929D01*
X83739929Y-110981930D01*
X83526554Y-111039104D01*
X83526548Y-111039107D01*
X83326340Y-111132465D01*
X83326338Y-111132466D01*
X83145377Y-111259175D01*
X82989175Y-111415377D01*
X82862467Y-111596337D01*
X82802105Y-111725782D01*
X82755932Y-111778221D01*
X82688738Y-111797372D01*
X82621857Y-111777156D01*
X82577341Y-111725780D01*
X82517098Y-111596589D01*
X82517097Y-111596587D01*
X82471741Y-111531811D01*
X82471740Y-111531810D01*
X81801000Y-112202551D01*
X81801000Y-112179840D01*
X81775036Y-112082939D01*
X81724876Y-111996060D01*
X81653940Y-111925124D01*
X81567061Y-111874964D01*
X81470160Y-111849000D01*
X81447448Y-111849000D01*
X82118188Y-111178259D01*
X82118187Y-111178258D01*
X82053411Y-111132901D01*
X82053405Y-111132898D01*
X81853284Y-111039580D01*
X81853270Y-111039575D01*
X81639986Y-110982426D01*
X81639976Y-110982424D01*
X81420001Y-110963179D01*
X81419999Y-110963179D01*
X81200023Y-110982424D01*
X81200013Y-110982426D01*
X80986729Y-111039575D01*
X80986720Y-111039579D01*
X80786590Y-111132901D01*
X80721811Y-111178258D01*
X81392553Y-111849000D01*
X81369840Y-111849000D01*
X81272939Y-111874964D01*
X81186060Y-111925124D01*
X81115124Y-111996060D01*
X81064964Y-112082939D01*
X81039000Y-112179840D01*
X81039000Y-112202553D01*
X80368258Y-111531811D01*
X80322901Y-111596590D01*
X80262382Y-111726373D01*
X80216209Y-111778812D01*
X80149016Y-111797964D01*
X80082135Y-111777748D01*
X80037618Y-111726373D01*
X79977096Y-111596586D01*
X79931741Y-111531811D01*
X79931740Y-111531810D01*
X79261000Y-112202551D01*
X79261000Y-112179840D01*
X79235036Y-112082939D01*
X79184876Y-111996060D01*
X79113940Y-111925124D01*
X79027061Y-111874964D01*
X78930160Y-111849000D01*
X78907448Y-111849000D01*
X79578188Y-111178259D01*
X79578187Y-111178258D01*
X79513411Y-111132901D01*
X79513405Y-111132898D01*
X79313284Y-111039580D01*
X79313270Y-111039575D01*
X79099986Y-110982426D01*
X79099976Y-110982424D01*
X78880001Y-110963179D01*
X78879999Y-110963179D01*
X78660023Y-110982424D01*
X78660013Y-110982426D01*
X78446729Y-111039575D01*
X78446720Y-111039579D01*
X78246590Y-111132901D01*
X78181811Y-111178258D01*
X78852553Y-111849000D01*
X78829840Y-111849000D01*
X78732939Y-111874964D01*
X78646060Y-111925124D01*
X78575124Y-111996060D01*
X78524964Y-112082939D01*
X78499000Y-112179840D01*
X78499000Y-112202553D01*
X77828258Y-111531811D01*
X77782901Y-111596590D01*
X77722658Y-111725781D01*
X77676485Y-111778220D01*
X77609292Y-111797372D01*
X77542411Y-111777156D01*
X77497894Y-111725781D01*
X77480592Y-111688678D01*
X77437534Y-111596339D01*
X77370045Y-111499954D01*
X77362925Y-111489785D01*
X77340598Y-111423578D01*
X77340500Y-111418662D01*
X77340500Y-107625781D01*
X77360185Y-107558742D01*
X77376814Y-107538105D01*
X93137778Y-91777141D01*
X93137782Y-91777139D01*
X93277139Y-91637782D01*
X93386632Y-91473914D01*
X93462051Y-91291835D01*
X93489616Y-91153258D01*
X93500500Y-91098543D01*
X93500500Y-79901458D01*
X93498263Y-79890215D01*
X93498262Y-79890210D01*
X93480516Y-79800993D01*
X93462051Y-79708164D01*
X93398412Y-79554526D01*
X93386632Y-79526086D01*
X93333886Y-79447146D01*
X93277140Y-79362219D01*
X93259312Y-79344391D01*
X93137782Y-79222861D01*
X93137781Y-79222860D01*
X92584208Y-78669288D01*
X92584206Y-78669285D01*
X92584206Y-78669286D01*
X92577139Y-78662219D01*
X92577139Y-78662218D01*
X92437782Y-78522861D01*
X92437781Y-78522860D01*
X92437780Y-78522859D01*
X92273917Y-78413369D01*
X92134207Y-78355500D01*
X92134205Y-78355499D01*
X92091837Y-78337949D01*
X92091829Y-78337947D01*
X91995188Y-78318724D01*
X91898544Y-78299500D01*
X91898541Y-78299500D01*
X91564499Y-78299500D01*
X91497460Y-78279815D01*
X91451705Y-78227011D01*
X91440499Y-78175500D01*
X91440499Y-77502129D01*
X91440498Y-77502123D01*
X91440497Y-77502116D01*
X91434091Y-77442517D01*
X91399665Y-77350217D01*
X91383797Y-77307671D01*
X91383793Y-77307664D01*
X91297547Y-77192455D01*
X91297544Y-77192452D01*
X91182335Y-77106206D01*
X91182328Y-77106202D01*
X91047482Y-77055908D01*
X91047483Y-77055908D01*
X90987883Y-77049501D01*
X90987881Y-77049500D01*
X90987873Y-77049500D01*
X90987864Y-77049500D01*
X87392129Y-77049500D01*
X87392123Y-77049501D01*
X87332516Y-77055908D01*
X87197671Y-77106202D01*
X87197664Y-77106206D01*
X87082455Y-77192452D01*
X87082452Y-77192455D01*
X86996206Y-77307664D01*
X86996202Y-77307671D01*
X86945908Y-77442517D01*
X86939501Y-77502116D01*
X86939501Y-77502123D01*
X86939500Y-77502135D01*
X86939500Y-81097870D01*
X86939501Y-81097876D01*
X86945908Y-81157483D01*
X86996202Y-81292328D01*
X86996206Y-81292335D01*
X87082452Y-81407544D01*
X87082455Y-81407547D01*
X87197664Y-81493793D01*
X87197673Y-81493798D01*
X87246506Y-81512011D01*
X87302440Y-81553881D01*
X87326858Y-81619345D01*
X87312007Y-81687618D01*
X87262603Y-81737024D01*
X87196598Y-81752018D01*
X87158625Y-81750001D01*
X87158579Y-81750000D01*
X86440000Y-81750000D01*
X86440000Y-83500000D01*
X85940000Y-83500000D01*
X85940000Y-81750000D01*
X85221423Y-81750000D01*
X85221411Y-81750001D01*
X85168808Y-81752794D01*
X84939012Y-81797237D01*
X84720024Y-81879879D01*
X84518158Y-81998339D01*
X84518151Y-81998344D01*
X84339213Y-82149211D01*
X84339211Y-82149213D01*
X84188344Y-82328151D01*
X84188339Y-82328158D01*
X84069879Y-82530024D01*
X83987237Y-82749012D01*
X83942794Y-82978808D01*
X83942794Y-82978809D01*
X83940001Y-83031382D01*
X83940000Y-83031421D01*
X83940000Y-83750000D01*
X84756988Y-83750000D01*
X84724075Y-83807007D01*
X84690000Y-83934174D01*
X84690000Y-84065826D01*
X84724075Y-84192993D01*
X84756988Y-84250000D01*
X83940001Y-84250000D01*
X83940001Y-84968588D01*
X83942794Y-85021191D01*
X83987237Y-85250987D01*
X84069879Y-85469975D01*
X84188339Y-85671841D01*
X84188344Y-85671848D01*
X84339211Y-85850786D01*
X84339213Y-85850788D01*
X84518151Y-86001655D01*
X84518158Y-86001660D01*
X84720024Y-86120120D01*
X84939012Y-86202762D01*
X85168809Y-86247205D01*
X85221382Y-86249998D01*
X85221421Y-86249999D01*
X85939999Y-86249999D01*
X85940000Y-86249998D01*
X85940000Y-84500000D01*
X86440000Y-84500000D01*
X86440000Y-86249999D01*
X87158576Y-86249999D01*
X87158588Y-86249998D01*
X87211191Y-86247205D01*
X87440987Y-86202762D01*
X87659975Y-86120120D01*
X87861841Y-86001660D01*
X87861848Y-86001655D01*
X88040786Y-85850788D01*
X88040788Y-85850786D01*
X88191655Y-85671848D01*
X88191660Y-85671841D01*
X88310120Y-85469975D01*
X88392762Y-85250987D01*
X88437205Y-85021191D01*
X88437205Y-85021190D01*
X88439998Y-84968617D01*
X88440000Y-84968578D01*
X88440000Y-84250000D01*
X87623012Y-84250000D01*
X87655925Y-84192993D01*
X87690000Y-84065826D01*
X87690000Y-83934174D01*
X87655925Y-83807007D01*
X87623012Y-83750000D01*
X88439999Y-83750000D01*
X88439999Y-83031423D01*
X88439998Y-83031411D01*
X88437205Y-82978808D01*
X88392762Y-82749012D01*
X88310120Y-82530024D01*
X88191660Y-82328158D01*
X88191655Y-82328151D01*
X88040788Y-82149213D01*
X88040786Y-82149211D01*
X87861848Y-81998344D01*
X87861841Y-81998339D01*
X87659975Y-81879879D01*
X87440984Y-81797236D01*
X87435840Y-81796241D01*
X87373760Y-81764180D01*
X87338869Y-81703646D01*
X87342244Y-81633858D01*
X87382814Y-81576973D01*
X87447697Y-81551052D01*
X87459374Y-81550499D01*
X90987872Y-81550499D01*
X91047483Y-81544091D01*
X91182331Y-81493796D01*
X91297546Y-81407546D01*
X91297545Y-81407546D01*
X91301189Y-81404819D01*
X91366653Y-81380401D01*
X91434926Y-81395252D01*
X91484332Y-81444657D01*
X91499500Y-81504085D01*
X91499500Y-90534217D01*
X91479815Y-90601256D01*
X91463181Y-90621898D01*
X83588413Y-98496666D01*
X75702221Y-106382858D01*
X75702218Y-106382861D01*
X75665746Y-106419333D01*
X75562859Y-106522219D01*
X75453371Y-106686079D01*
X75453364Y-106686092D01*
X75377950Y-106868160D01*
X75377947Y-106868170D01*
X75339500Y-107061456D01*
X75339500Y-111418662D01*
X75319815Y-111485701D01*
X75317075Y-111489785D01*
X75242466Y-111596338D01*
X75242465Y-111596340D01*
X75149107Y-111796548D01*
X75149104Y-111796554D01*
X75091930Y-112009929D01*
X75091929Y-112009937D01*
X75072677Y-112229997D01*
X74500500Y-112229997D01*
X74500500Y-78235803D01*
X81190000Y-78235803D01*
X81190000Y-79050000D01*
X82690000Y-79050000D01*
X82690000Y-79550000D01*
X81190001Y-79550000D01*
X81190001Y-80364197D01*
X81200400Y-80496332D01*
X81255377Y-80714519D01*
X81348428Y-80919374D01*
X81348431Y-80919380D01*
X81476559Y-81104323D01*
X81476569Y-81104335D01*
X81635664Y-81263430D01*
X81635676Y-81263440D01*
X81820619Y-81391568D01*
X81820625Y-81391571D01*
X82025480Y-81484622D01*
X82243667Y-81539599D01*
X82375810Y-81549999D01*
X82939999Y-81549999D01*
X82940000Y-81549998D01*
X82940000Y-80733012D01*
X82997007Y-80765925D01*
X83124174Y-80800000D01*
X83255826Y-80800000D01*
X83382993Y-80765925D01*
X83440000Y-80733012D01*
X83440000Y-81549999D01*
X84004182Y-81549999D01*
X84004197Y-81549998D01*
X84136332Y-81539599D01*
X84354519Y-81484622D01*
X84559374Y-81391571D01*
X84559380Y-81391568D01*
X84744323Y-81263440D01*
X84744335Y-81263430D01*
X84903430Y-81104335D01*
X84903440Y-81104323D01*
X85031568Y-80919380D01*
X85031571Y-80919374D01*
X85124622Y-80714519D01*
X85179599Y-80496332D01*
X85189999Y-80364196D01*
X85190000Y-80364184D01*
X85190000Y-79550000D01*
X83690000Y-79550000D01*
X83690000Y-79050000D01*
X85189999Y-79050000D01*
X85189999Y-78235817D01*
X85189998Y-78235802D01*
X85179599Y-78103667D01*
X85124622Y-77885480D01*
X85031571Y-77680625D01*
X85031568Y-77680619D01*
X84903440Y-77495676D01*
X84903430Y-77495664D01*
X84744335Y-77336569D01*
X84744323Y-77336559D01*
X84559380Y-77208431D01*
X84559374Y-77208428D01*
X84354519Y-77115377D01*
X84136332Y-77060400D01*
X84004196Y-77050000D01*
X83440000Y-77050000D01*
X83440000Y-77866988D01*
X83382993Y-77834075D01*
X83255826Y-77800000D01*
X83124174Y-77800000D01*
X82997007Y-77834075D01*
X82940000Y-77866988D01*
X82940000Y-77050000D01*
X82375817Y-77050000D01*
X82375802Y-77050001D01*
X82243667Y-77060400D01*
X82025480Y-77115377D01*
X81820625Y-77208428D01*
X81820619Y-77208431D01*
X81635676Y-77336559D01*
X81635664Y-77336569D01*
X81476569Y-77495664D01*
X81476559Y-77495676D01*
X81348431Y-77680619D01*
X81348428Y-77680625D01*
X81255377Y-77885480D01*
X81200400Y-78103667D01*
X81190000Y-78235803D01*
X74500500Y-78235803D01*
X74500500Y-45878711D01*
X78649500Y-45878711D01*
X78649500Y-46121288D01*
X78681161Y-46361785D01*
X78743947Y-46596104D01*
X78778613Y-46679794D01*
X78836776Y-46820212D01*
X78958064Y-47030289D01*
X78958066Y-47030292D01*
X78958067Y-47030293D01*
X79105733Y-47222736D01*
X79105739Y-47222743D01*
X79277256Y-47394260D01*
X79277262Y-47394265D01*
X79469711Y-47541936D01*
X79679788Y-47663224D01*
X79903900Y-47756054D01*
X80138211Y-47818838D01*
X80274793Y-47836819D01*
X80378711Y-47850500D01*
X80378712Y-47850500D01*
X80621289Y-47850500D01*
X80669388Y-47844167D01*
X80861789Y-47818838D01*
X81096100Y-47756054D01*
X81320212Y-47663224D01*
X81530289Y-47541936D01*
X81722738Y-47394265D01*
X81894265Y-47222738D01*
X82041936Y-47030289D01*
X82163224Y-46820212D01*
X82256054Y-46596100D01*
X82318838Y-46361789D01*
X82350500Y-46121288D01*
X82350500Y-45878712D01*
X82318838Y-45638211D01*
X82256054Y-45403900D01*
X82163224Y-45179788D01*
X82041936Y-44969711D01*
X81894265Y-44777262D01*
X81894260Y-44777256D01*
X81722743Y-44605739D01*
X81722736Y-44605733D01*
X81530293Y-44458067D01*
X81530292Y-44458066D01*
X81530289Y-44458064D01*
X81320212Y-44336776D01*
X81320205Y-44336773D01*
X81096104Y-44243947D01*
X80861785Y-44181161D01*
X80621289Y-44149500D01*
X80621288Y-44149500D01*
X80378712Y-44149500D01*
X80378711Y-44149500D01*
X80138214Y-44181161D01*
X79903895Y-44243947D01*
X79679794Y-44336773D01*
X79679785Y-44336777D01*
X79469706Y-44458067D01*
X79277263Y-44605733D01*
X79277256Y-44605739D01*
X79105739Y-44777256D01*
X79105733Y-44777263D01*
X78958067Y-44969706D01*
X78836777Y-45179785D01*
X78836773Y-45179794D01*
X78743947Y-45403895D01*
X78681161Y-45638214D01*
X78649500Y-45878711D01*
X74500500Y-45878711D01*
X74500500Y-41124500D01*
X74520185Y-41057461D01*
X74572989Y-41011706D01*
X74624500Y-41000500D01*
X113376000Y-41000500D01*
X113443039Y-41020185D01*
G37*
%TD.AperFunction*%
%TD*%
M02*
