M48
; DRILL file {KiCad 8.0.4} date 2024-08-28T09:39:40-0600
; FORMAT={-:-/ absolute / inch / decimal}
; #@! TF.CreationDate,2024-08-28T09:39:40-06:00
; #@! TF.GenerationSoftware,Kicad,Pcbnew,8.0.4
; #@! TF.FileFunction,Plated,1,2,PTH
FMAT,2
INCH
; #@! TA.AperFunction,Plated,PTH,ViaDrill
T1C0.0256
; #@! TA.AperFunction,Plated,PTH,ComponentDrill
T2C0.0300
; #@! TA.AperFunction,Plated,PTH,ComponentDrill
T3C0.0315
; #@! TA.AperFunction,Plated,PTH,ComponentDrill
T4C0.0354
; #@! TA.AperFunction,Plated,PTH,ComponentDrill
T5C0.0394
; #@! TA.AperFunction,Plated,PTH,ComponentDrill
T6C0.0402
%
G90
G05
T1
X5.1772Y-4.311
X5.8661Y-4.0945
T2
X3.0055Y-4.4185
X3.1055Y-4.4185
X3.2055Y-4.4185
X3.3055Y-4.4185
X3.4055Y-4.4185
X3.5055Y-4.4185
T3
X5.8071Y-4.2697
X5.8071Y-4.4291
X6.1071Y-4.2697
X6.1071Y-4.4291
T4
X6.2691Y-4.1732
X6.278Y-4.4291
X6.3691Y-4.1732
X6.378Y-4.4291
T5
X3.2087Y-2.3819
X3.2087Y-2.4819
X3.2087Y-2.5819
X3.5205Y-2.126
X3.5236Y-1.8504
X3.6205Y-2.126
X3.6236Y-1.8504
X3.7205Y-2.126
X3.7236Y-1.8504
T6
X4.3622Y-2.2817
X4.3622Y-2.3817
X4.3622Y-2.4817
X4.3622Y-2.5817
X4.3622Y-2.6817
X4.3622Y-2.7817
X4.3622Y-2.8817
X4.3622Y-2.9817
X4.3622Y-3.0817
X4.3622Y-3.1817
X4.3622Y-3.2817
X4.3622Y-3.3817
X4.3622Y-3.4817
X4.3622Y-3.5817
X4.3622Y-3.6817
X5.3622Y-2.2817
X5.3622Y-2.3817
X5.3622Y-2.4817
X5.3622Y-2.5817
X5.3622Y-2.6817
X5.3622Y-2.7817
X5.3622Y-2.8817
X5.3622Y-2.9817
X5.3622Y-3.0817
X5.3622Y-3.1817
X5.3622Y-3.2817
X5.3622Y-3.3817
X5.3622Y-3.4817
X5.3622Y-3.5817
X5.3622Y-3.6817
T5
G00X3.2752Y-3.0827
M15
G01X3.2752Y-3.1614
M16
G05
G00X3.3539Y-3.3071
M15
G01X3.4327Y-3.3071
M16
G05
G00X3.5114Y-3.0827
M15
G01X3.5114Y-3.1614
M16
G05
M30
