%TF.GenerationSoftware,KiCad,Pcbnew,8.0.4*%
%TF.CreationDate,2024-08-28T09:39:43-06:00*%
%TF.ProjectId,ClonadorDeSe_alesEsp32,436c6f6e-6164-46f7-9244-655365f1616c,rev?*%
%TF.SameCoordinates,Original*%
%TF.FileFunction,Soldermask,Top*%
%TF.FilePolarity,Negative*%
%FSLAX46Y46*%
G04 Gerber Fmt 4.6, Leading zero omitted, Abs format (unit mm)*
G04 Created by KiCad (PCBNEW 8.0.4) date 2024-08-28 09:39:43*
%MOMM*%
%LPD*%
G01*
G04 APERTURE LIST*
G04 Aperture macros list*
%AMRoundRect*
0 Rectangle with rounded corners*
0 $1 Rounding radius*
0 $2 $3 $4 $5 $6 $7 $8 $9 X,Y pos of 4 corners*
0 Add a 4 corners polygon primitive as box body*
4,1,4,$2,$3,$4,$5,$6,$7,$8,$9,$2,$3,0*
0 Add four circle primitives for the rounded corners*
1,1,$1+$1,$2,$3*
1,1,$1+$1,$4,$5*
1,1,$1+$1,$6,$7*
1,1,$1+$1,$8,$9*
0 Add four rect primitives between the rounded corners*
20,1,$1+$1,$2,$3,$4,$5,0*
20,1,$1+$1,$4,$5,$6,$7,0*
20,1,$1+$1,$6,$7,$8,$9,0*
20,1,$1+$1,$8,$9,$2,$3,0*%
G04 Aperture macros list end*
%ADD10C,3.200000*%
%ADD11R,1.700000X1.700000*%
%ADD12O,1.700000X1.700000*%
%ADD13C,1.524000*%
%ADD14C,1.600000*%
%ADD15O,1.600000X1.600000*%
%ADD16R,3.500000X3.500000*%
%ADD17RoundRect,0.750000X-0.750000X-1.000000X0.750000X-1.000000X0.750000X1.000000X-0.750000X1.000000X0*%
%ADD18RoundRect,0.875000X-0.875000X-0.875000X0.875000X-0.875000X0.875000X0.875000X-0.875000X0.875000X0*%
%ADD19R,1.800000X1.800000*%
%ADD20C,1.800000*%
%ADD21C,3.000000*%
%ADD22RoundRect,0.102000X1.000000X1.000000X-1.000000X1.000000X-1.000000X-1.000000X1.000000X-1.000000X0*%
%ADD23C,2.204000*%
%ADD24C,2.390000*%
%ADD25C,3.450000*%
G04 APERTURE END LIST*
D10*
%TO.C,MH 3.2mm M3*%
X80500000Y-46000000D03*
%TD*%
D11*
%TO.C,Servo2*%
X89420000Y-54000000D03*
D12*
X91960000Y-54000000D03*
X94500000Y-54000000D03*
%TD*%
D13*
%TO.C,MH-CD42*%
X76340000Y-112230000D03*
X78880000Y-112230000D03*
X81420000Y-112230000D03*
X83960000Y-112230000D03*
X86500000Y-112230000D03*
X89040000Y-112230000D03*
%TD*%
D11*
%TO.C,Servo1*%
X89500000Y-47000000D03*
D12*
X92040000Y-47000000D03*
X94580000Y-47000000D03*
%TD*%
D14*
%TO.C,R1*%
X147500000Y-108450000D03*
D15*
X155120000Y-108450000D03*
%TD*%
D16*
%TO.C,EntradaJack*%
X89190000Y-79300000D03*
D17*
X83190000Y-79300000D03*
D18*
X86190000Y-84000000D03*
%TD*%
D14*
%TO.C,R2*%
X147500000Y-112500000D03*
D15*
X155120000Y-112500000D03*
%TD*%
D10*
%TO.C,MH 3.2mm M3*%
X148500000Y-47500000D03*
%TD*%
%TO.C,MH 3.2mm M3*%
X81000000Y-135000000D03*
%TD*%
%TO.C,MH 3.2mm M3*%
X168000000Y-110000000D03*
%TD*%
D19*
%TO.C,D1*%
X161775000Y-106000000D03*
D20*
X159235000Y-106000000D03*
%TD*%
D19*
%TO.C,D2*%
X162000000Y-112500000D03*
D20*
X159460000Y-112500000D03*
%TD*%
D11*
%TO.C,Zumbador*%
X81500000Y-60500000D03*
D12*
X81500000Y-63040000D03*
X81500000Y-65580000D03*
%TD*%
D21*
%TO.C,ESP32-DevKit1*%
X135780000Y-101475000D03*
X135780000Y-54525000D03*
X111270000Y-101475000D03*
X111270000Y-54525000D03*
D22*
X136200000Y-93515000D03*
D23*
X136200000Y-90975000D03*
X136200000Y-88435000D03*
X136200000Y-85895000D03*
X136200000Y-83355000D03*
X136200000Y-80815000D03*
X136200000Y-78275000D03*
X136200000Y-75735000D03*
X136200000Y-73195000D03*
X136200000Y-70655000D03*
X136200000Y-68115000D03*
X136200000Y-65575000D03*
X136200000Y-63035000D03*
X136200000Y-60495000D03*
X136200000Y-57955000D03*
X110800000Y-57955000D03*
X110800000Y-60495000D03*
X110800000Y-63035000D03*
X110800000Y-65575000D03*
X110800000Y-68115000D03*
X110800000Y-70655000D03*
X110800000Y-73195000D03*
X110800000Y-75735000D03*
X110800000Y-78275000D03*
X110800000Y-80815000D03*
X110800000Y-83355000D03*
X110800000Y-85895000D03*
X110800000Y-88435000D03*
X110800000Y-90975000D03*
X110800000Y-93515000D03*
%TD*%
D24*
%TO.C,Bateria 18650*%
X92670000Y-134500000D03*
D25*
X101000000Y-118500000D03*
X156200000Y-134500000D03*
%TD*%
M02*
