%TF.GenerationSoftware,KiCad,Pcbnew,8.0.4*%
%TF.CreationDate,2024-08-28T09:39:43-06:00*%
%TF.ProjectId,ClonadorDeSe_alesEsp32,436c6f6e-6164-46f7-9244-655365f1616c,rev?*%
%TF.SameCoordinates,Original*%
%TF.FileFunction,Legend,Bot*%
%TF.FilePolarity,Positive*%
%FSLAX46Y46*%
G04 Gerber Fmt 4.6, Leading zero omitted, Abs format (unit mm)*
G04 Created by KiCad (PCBNEW 8.0.4) date 2024-08-28 09:39:43*
%MOMM*%
%LPD*%
G01*
G04 APERTURE LIST*
%ADD10C,0.150000*%
%ADD11C,0.120000*%
%ADD12C,0.127000*%
G04 APERTURE END LIST*
D10*
X133357143Y-138931009D02*
X133214286Y-138978628D01*
X133214286Y-138978628D02*
X133166667Y-139026247D01*
X133166667Y-139026247D02*
X133119048Y-139121485D01*
X133119048Y-139121485D02*
X133119048Y-139264342D01*
X133119048Y-139264342D02*
X133166667Y-139359580D01*
X133166667Y-139359580D02*
X133214286Y-139407200D01*
X133214286Y-139407200D02*
X133309524Y-139454819D01*
X133309524Y-139454819D02*
X133690476Y-139454819D01*
X133690476Y-139454819D02*
X133690476Y-138454819D01*
X133690476Y-138454819D02*
X133357143Y-138454819D01*
X133357143Y-138454819D02*
X133261905Y-138502438D01*
X133261905Y-138502438D02*
X133214286Y-138550057D01*
X133214286Y-138550057D02*
X133166667Y-138645295D01*
X133166667Y-138645295D02*
X133166667Y-138740533D01*
X133166667Y-138740533D02*
X133214286Y-138835771D01*
X133214286Y-138835771D02*
X133261905Y-138883390D01*
X133261905Y-138883390D02*
X133357143Y-138931009D01*
X133357143Y-138931009D02*
X133690476Y-138931009D01*
X132261905Y-139454819D02*
X132261905Y-138931009D01*
X132261905Y-138931009D02*
X132309524Y-138835771D01*
X132309524Y-138835771D02*
X132404762Y-138788152D01*
X132404762Y-138788152D02*
X132595238Y-138788152D01*
X132595238Y-138788152D02*
X132690476Y-138835771D01*
X132261905Y-139407200D02*
X132357143Y-139454819D01*
X132357143Y-139454819D02*
X132595238Y-139454819D01*
X132595238Y-139454819D02*
X132690476Y-139407200D01*
X132690476Y-139407200D02*
X132738095Y-139311961D01*
X132738095Y-139311961D02*
X132738095Y-139216723D01*
X132738095Y-139216723D02*
X132690476Y-139121485D01*
X132690476Y-139121485D02*
X132595238Y-139073866D01*
X132595238Y-139073866D02*
X132357143Y-139073866D01*
X132357143Y-139073866D02*
X132261905Y-139026247D01*
X131928571Y-138788152D02*
X131547619Y-138788152D01*
X131785714Y-138454819D02*
X131785714Y-139311961D01*
X131785714Y-139311961D02*
X131738095Y-139407200D01*
X131738095Y-139407200D02*
X131642857Y-139454819D01*
X131642857Y-139454819D02*
X131547619Y-139454819D01*
X130833333Y-139407200D02*
X130928571Y-139454819D01*
X130928571Y-139454819D02*
X131119047Y-139454819D01*
X131119047Y-139454819D02*
X131214285Y-139407200D01*
X131214285Y-139407200D02*
X131261904Y-139311961D01*
X131261904Y-139311961D02*
X131261904Y-138931009D01*
X131261904Y-138931009D02*
X131214285Y-138835771D01*
X131214285Y-138835771D02*
X131119047Y-138788152D01*
X131119047Y-138788152D02*
X130928571Y-138788152D01*
X130928571Y-138788152D02*
X130833333Y-138835771D01*
X130833333Y-138835771D02*
X130785714Y-138931009D01*
X130785714Y-138931009D02*
X130785714Y-139026247D01*
X130785714Y-139026247D02*
X131261904Y-139121485D01*
X130357142Y-139454819D02*
X130357142Y-138788152D01*
X130357142Y-138978628D02*
X130309523Y-138883390D01*
X130309523Y-138883390D02*
X130261904Y-138835771D01*
X130261904Y-138835771D02*
X130166666Y-138788152D01*
X130166666Y-138788152D02*
X130071428Y-138788152D01*
X129738094Y-139454819D02*
X129738094Y-138788152D01*
X129738094Y-138454819D02*
X129785713Y-138502438D01*
X129785713Y-138502438D02*
X129738094Y-138550057D01*
X129738094Y-138550057D02*
X129690475Y-138502438D01*
X129690475Y-138502438D02*
X129738094Y-138454819D01*
X129738094Y-138454819D02*
X129738094Y-138550057D01*
X128833333Y-139454819D02*
X128833333Y-138931009D01*
X128833333Y-138931009D02*
X128880952Y-138835771D01*
X128880952Y-138835771D02*
X128976190Y-138788152D01*
X128976190Y-138788152D02*
X129166666Y-138788152D01*
X129166666Y-138788152D02*
X129261904Y-138835771D01*
X128833333Y-139407200D02*
X128928571Y-139454819D01*
X128928571Y-139454819D02*
X129166666Y-139454819D01*
X129166666Y-139454819D02*
X129261904Y-139407200D01*
X129261904Y-139407200D02*
X129309523Y-139311961D01*
X129309523Y-139311961D02*
X129309523Y-139216723D01*
X129309523Y-139216723D02*
X129261904Y-139121485D01*
X129261904Y-139121485D02*
X129166666Y-139073866D01*
X129166666Y-139073866D02*
X128928571Y-139073866D01*
X128928571Y-139073866D02*
X128833333Y-139026247D01*
X127071428Y-139454819D02*
X127642856Y-139454819D01*
X127357142Y-139454819D02*
X127357142Y-138454819D01*
X127357142Y-138454819D02*
X127452380Y-138597676D01*
X127452380Y-138597676D02*
X127547618Y-138692914D01*
X127547618Y-138692914D02*
X127642856Y-138740533D01*
X126499999Y-138883390D02*
X126595237Y-138835771D01*
X126595237Y-138835771D02*
X126642856Y-138788152D01*
X126642856Y-138788152D02*
X126690475Y-138692914D01*
X126690475Y-138692914D02*
X126690475Y-138645295D01*
X126690475Y-138645295D02*
X126642856Y-138550057D01*
X126642856Y-138550057D02*
X126595237Y-138502438D01*
X126595237Y-138502438D02*
X126499999Y-138454819D01*
X126499999Y-138454819D02*
X126309523Y-138454819D01*
X126309523Y-138454819D02*
X126214285Y-138502438D01*
X126214285Y-138502438D02*
X126166666Y-138550057D01*
X126166666Y-138550057D02*
X126119047Y-138645295D01*
X126119047Y-138645295D02*
X126119047Y-138692914D01*
X126119047Y-138692914D02*
X126166666Y-138788152D01*
X126166666Y-138788152D02*
X126214285Y-138835771D01*
X126214285Y-138835771D02*
X126309523Y-138883390D01*
X126309523Y-138883390D02*
X126499999Y-138883390D01*
X126499999Y-138883390D02*
X126595237Y-138931009D01*
X126595237Y-138931009D02*
X126642856Y-138978628D01*
X126642856Y-138978628D02*
X126690475Y-139073866D01*
X126690475Y-139073866D02*
X126690475Y-139264342D01*
X126690475Y-139264342D02*
X126642856Y-139359580D01*
X126642856Y-139359580D02*
X126595237Y-139407200D01*
X126595237Y-139407200D02*
X126499999Y-139454819D01*
X126499999Y-139454819D02*
X126309523Y-139454819D01*
X126309523Y-139454819D02*
X126214285Y-139407200D01*
X126214285Y-139407200D02*
X126166666Y-139359580D01*
X126166666Y-139359580D02*
X126119047Y-139264342D01*
X126119047Y-139264342D02*
X126119047Y-139073866D01*
X126119047Y-139073866D02*
X126166666Y-138978628D01*
X126166666Y-138978628D02*
X126214285Y-138931009D01*
X126214285Y-138931009D02*
X126309523Y-138883390D01*
X125261904Y-138454819D02*
X125452380Y-138454819D01*
X125452380Y-138454819D02*
X125547618Y-138502438D01*
X125547618Y-138502438D02*
X125595237Y-138550057D01*
X125595237Y-138550057D02*
X125690475Y-138692914D01*
X125690475Y-138692914D02*
X125738094Y-138883390D01*
X125738094Y-138883390D02*
X125738094Y-139264342D01*
X125738094Y-139264342D02*
X125690475Y-139359580D01*
X125690475Y-139359580D02*
X125642856Y-139407200D01*
X125642856Y-139407200D02*
X125547618Y-139454819D01*
X125547618Y-139454819D02*
X125357142Y-139454819D01*
X125357142Y-139454819D02*
X125261904Y-139407200D01*
X125261904Y-139407200D02*
X125214285Y-139359580D01*
X125214285Y-139359580D02*
X125166666Y-139264342D01*
X125166666Y-139264342D02*
X125166666Y-139026247D01*
X125166666Y-139026247D02*
X125214285Y-138931009D01*
X125214285Y-138931009D02*
X125261904Y-138883390D01*
X125261904Y-138883390D02*
X125357142Y-138835771D01*
X125357142Y-138835771D02*
X125547618Y-138835771D01*
X125547618Y-138835771D02*
X125642856Y-138883390D01*
X125642856Y-138883390D02*
X125690475Y-138931009D01*
X125690475Y-138931009D02*
X125738094Y-139026247D01*
X124261904Y-138454819D02*
X124738094Y-138454819D01*
X124738094Y-138454819D02*
X124785713Y-138931009D01*
X124785713Y-138931009D02*
X124738094Y-138883390D01*
X124738094Y-138883390D02*
X124642856Y-138835771D01*
X124642856Y-138835771D02*
X124404761Y-138835771D01*
X124404761Y-138835771D02*
X124309523Y-138883390D01*
X124309523Y-138883390D02*
X124261904Y-138931009D01*
X124261904Y-138931009D02*
X124214285Y-139026247D01*
X124214285Y-139026247D02*
X124214285Y-139264342D01*
X124214285Y-139264342D02*
X124261904Y-139359580D01*
X124261904Y-139359580D02*
X124309523Y-139407200D01*
X124309523Y-139407200D02*
X124404761Y-139454819D01*
X124404761Y-139454819D02*
X124642856Y-139454819D01*
X124642856Y-139454819D02*
X124738094Y-139407200D01*
X124738094Y-139407200D02*
X124785713Y-139359580D01*
X123595237Y-138454819D02*
X123499999Y-138454819D01*
X123499999Y-138454819D02*
X123404761Y-138502438D01*
X123404761Y-138502438D02*
X123357142Y-138550057D01*
X123357142Y-138550057D02*
X123309523Y-138645295D01*
X123309523Y-138645295D02*
X123261904Y-138835771D01*
X123261904Y-138835771D02*
X123261904Y-139073866D01*
X123261904Y-139073866D02*
X123309523Y-139264342D01*
X123309523Y-139264342D02*
X123357142Y-139359580D01*
X123357142Y-139359580D02*
X123404761Y-139407200D01*
X123404761Y-139407200D02*
X123499999Y-139454819D01*
X123499999Y-139454819D02*
X123595237Y-139454819D01*
X123595237Y-139454819D02*
X123690475Y-139407200D01*
X123690475Y-139407200D02*
X123738094Y-139359580D01*
X123738094Y-139359580D02*
X123785713Y-139264342D01*
X123785713Y-139264342D02*
X123833332Y-139073866D01*
X123833332Y-139073866D02*
X123833332Y-138835771D01*
X123833332Y-138835771D02*
X123785713Y-138645295D01*
X123785713Y-138645295D02*
X123738094Y-138550057D01*
X123738094Y-138550057D02*
X123690475Y-138502438D01*
X123690475Y-138502438D02*
X123595237Y-138454819D01*
X153454819Y-73142857D02*
X152454819Y-73142857D01*
X152931009Y-73142857D02*
X152931009Y-73714285D01*
X153454819Y-73714285D02*
X152454819Y-73714285D01*
X153359580Y-74761904D02*
X153407200Y-74714285D01*
X153407200Y-74714285D02*
X153454819Y-74571428D01*
X153454819Y-74571428D02*
X153454819Y-74476190D01*
X153454819Y-74476190D02*
X153407200Y-74333333D01*
X153407200Y-74333333D02*
X153311961Y-74238095D01*
X153311961Y-74238095D02*
X153216723Y-74190476D01*
X153216723Y-74190476D02*
X153026247Y-74142857D01*
X153026247Y-74142857D02*
X152883390Y-74142857D01*
X152883390Y-74142857D02*
X152692914Y-74190476D01*
X152692914Y-74190476D02*
X152597676Y-74238095D01*
X152597676Y-74238095D02*
X152502438Y-74333333D01*
X152502438Y-74333333D02*
X152454819Y-74476190D01*
X152454819Y-74476190D02*
X152454819Y-74571428D01*
X152454819Y-74571428D02*
X152502438Y-74714285D01*
X152502438Y-74714285D02*
X152550057Y-74761904D01*
X153073866Y-75190476D02*
X153073866Y-75952381D01*
X153454819Y-76952380D02*
X153454819Y-76380952D01*
X153454819Y-76666666D02*
X152454819Y-76666666D01*
X152454819Y-76666666D02*
X152597676Y-76571428D01*
X152597676Y-76571428D02*
X152692914Y-76476190D01*
X152692914Y-76476190D02*
X152740533Y-76380952D01*
X152550057Y-77333333D02*
X152502438Y-77380952D01*
X152502438Y-77380952D02*
X152454819Y-77476190D01*
X152454819Y-77476190D02*
X152454819Y-77714285D01*
X152454819Y-77714285D02*
X152502438Y-77809523D01*
X152502438Y-77809523D02*
X152550057Y-77857142D01*
X152550057Y-77857142D02*
X152645295Y-77904761D01*
X152645295Y-77904761D02*
X152740533Y-77904761D01*
X152740533Y-77904761D02*
X152883390Y-77857142D01*
X152883390Y-77857142D02*
X153454819Y-77285714D01*
X153454819Y-77285714D02*
X153454819Y-77904761D01*
D11*
%TO.C,Bateria 18650*%
X85600000Y-129940000D02*
X89960000Y-129940000D01*
X86100000Y-133750000D02*
X86100000Y-131250000D01*
X87350000Y-132500000D02*
X84850000Y-132500000D01*
X89960000Y-116060000D02*
X167240000Y-116060000D01*
X89960000Y-123060000D02*
X89960000Y-116060000D01*
X89960000Y-129940000D02*
X89960000Y-136940000D01*
X89960000Y-136940000D02*
X167240000Y-136940000D01*
X167240000Y-116060000D02*
X167240000Y-123060000D01*
X167240000Y-136920000D02*
X167240000Y-129940000D01*
X169850000Y-132500000D02*
X172350000Y-132500000D01*
D12*
%TO.C,HC-12*%
X167600000Y-61800000D02*
X167600000Y-89200000D01*
X154400000Y-89200000D02*
X154400000Y-61800000D01*
%TD*%
M02*
